<?xml version="1.0" encoding="utf-8"?>
<!-- Generator: Adobe Illustrator 27.6.1, SVG Export Plug-In . SVG Version: 6.00 Build 0)  -->
<svg version="1.1" xmlns="http://www.w3.org/2000/svg" xmlns:xlink="http://www.w3.org/1999/xlink" x="0px" y="0px"
	 viewBox="0 0 283.5 178.9" style="enable-background:new 0 0 283.5 178.9;" xml:space="preserve">
<style type="text/css">
	.st0{fill:#010202;}
</style>
<g id="Ebene_2">
</g>
<g id="Ebene_1">
	<path class="st0" d="M262.5,98.1v1.1h-13v-1.1H262.5z"/>
	<path class="st0" d="M246.6,102.4l-3.9-9.9c-0.4-1.1-2-1.1-2.4,0l-3.9,9.9l1.3,0.5l2.2-5.6l1.5-4c0-0.1,0.2-0.1,0.3,0l1.4,3.7
		l2.3,5.8L246.6,102.4z"/>
	<path class="st0" d="M180,102.4l-3.9-9.9c-0.4-1.1-2-1.1-2.4,0l-3.9,9.9l1.3,0.5l2.2-5.6l1.5-4c0-0.1,0.2-0.1,0.3,0l1.4,3.7
		l2.3,5.8L180,102.4z"/>
	<path class="st0" d="M176.9,115.3h2.6c-0.1,1.8-1.9,3.3-3.6,3.3c-2.4,0-4.6-1.8-4.6-4.5c0-2.5,1.9-4.5,4.4-4.5
		c1.1,0,2.1,0.5,2.9,1.2l0.5-1.3c-1-0.7-2.2-1.1-3.5-1.1c-3.2,0-5.7,2.6-5.7,5.8c0,3.3,2.8,5.7,5.9,5.7s5.2-2.3,5.2-5.4V114h-4.1
		V115.3z"/>
	<path class="st0" d="M130.9,76.6l-3.2-2.1c-3.4-2.2-7.3-3.4-11.3-3.4c-9.7,0-17.4,6-21.7,16.8l-0.2,0.6c-2.4,6.1-7.3,9.9-12.9,9.9
		c-5.6,0-10.5-3.8-12.9-9.9L53.5,49c-1.2-3.2-3.4-5-5.8-5c-2.4,0-4.6,1.9-5.8,5L25.5,91.3l-7-2.7l16.4-42.3
		c2.4-6.1,7.3-9.9,12.9-9.9c5.6,0,10.5,3.8,12.9,9.9l15.3,39.4c1.2,3.2,3.4,5,5.8,5c2.4,0,4.6-1.9,5.8-5l0.2-0.6
		c5.4-13.7,15.9-21.5,28.7-21.6c5.5,0,10.9,1.6,15.5,4.6l1.8,1.2L130.9,76.6L130.9,76.6z M125.1,91.5l-2.9,7.5h12.8
		c-2.3,7.8-9.5,13.5-17.9,13.5c-1.4,0-2.7-0.1-4-0.4c-1.7-0.4-3.3-1-4.8-1.8l-3.3-1.8l-2.7,7.1l2.5,1.3c2.1,1.2,4.4,2,6.8,2.5
		c1.8,0.4,3.7,0.6,5.6,0.6c13.8,0,25.3-10.8,26.2-24.5l0.3-4H125.1z"/>
	<path class="st0" d="M183.7,92h1.3c2,0,4,0.5,4,3c0,0.8-0.4,1.7-1.2,2v0c1.3,0.2,2.2,1.5,2.2,2.7c0,2.2-1.8,3-3.8,3h-2.5V92z
		 M185,96.8h0.3c1.3,0,2.3-0.3,2.3-1.8c0-1.5-1-1.8-2.3-1.8H185V96.8z M185,101.6h1c1.2,0,2.6-0.4,2.6-1.9c0-1.5-1.5-1.8-2.8-1.8
		H185V101.6z"/>
	<path class="st0" d="M201,102.9h-1.6l-3.2-4.6h-0.6v4.6h-1.3V92h1.6c1,0,2,0,2.9,0.5c0.9,0.5,1.4,1.5,1.4,2.6c0,1.5-1,2.8-2.6,3
		L201,102.9z M195.7,97.2h0.4c1.4,0,2.9-0.3,2.9-2c0-1.7-1.6-1.9-2.9-1.9h-0.4V97.2z"/>
	<path class="st0" d="M206.3,102.9h-1.3V92h1.3V102.9z"/>
	<path class="st0" d="M211,91.5l8.1,8.5v-8h1.3v11.2l-8.1-8.5v8.1H211V91.5z"/>
	<path class="st0" d="M233.1,94.1c-0.8-0.7-1.8-1.1-2.9-1.1c-2.4,0-4.3,2-4.3,4.4c0,2.4,1.8,4.4,4.2,4.4c1.1,0,2.1-0.4,2.9-1.1v1.6
		c-0.8,0.5-1.9,0.8-2.8,0.8c-3.1,0-5.6-2.4-5.6-5.6c0-3.2,2.6-5.7,5.7-5.7c0.9,0,1.9,0.2,2.7,0.7V94.1z"/>
	<path class="st0" d="M184,108.6h5.9v1.3h-4.5v3.1h4.4v1.3h-4.4v4.2h4.5v1.3H184V108.6z"/>
	<path class="st0" d="M194.4,108.1l8.3,8.7v-8.1h1.4v11.5l-8.3-8.7v8.2h-1.4V108.1z"/>
	<path class="st0" d="M219.7,114.1c0,3.3-2.6,5.7-5.8,5.7s-5.8-2.5-5.8-5.7c0-3.2,2.6-5.7,5.8-5.7
		C217.1,108.4,219.7,111,219.7,114.1z M218.3,114.1c0-2.4-1.8-4.5-4.4-4.5s-4.4,2-4.4,4.5c0,2.5,2,4.5,4.4,4.5
		C216.3,118.6,218.3,116.6,218.3,114.1z"/>
	<path class="st0" d="M225.8,112.4L225.8,112.4l-1.3,7.3h-1.4l2.2-11.5l3.8,8.7l3.8-8.7l2.2,11.5h-1.4l-1.3-7.3h0l-3.3,7.5
		L225.8,112.4z"/>
	<path class="st0" d="M240.6,119.6h-1.4v-11h1.4V119.6z"/>
	<path class="st0" d="M253.7,110.7c-0.8-0.7-1.9-1.1-2.9-1.1c-2.5,0-4.4,2.1-4.4,4.5c0,2.4,1.9,4.5,4.3,4.5c1.1,0,2.1-0.4,2.9-1.1
		v1.6c-0.8,0.5-1.9,0.8-2.9,0.8c-3.1,0-5.7-2.5-5.7-5.7c0-3.3,2.6-5.8,5.9-5.8c1,0,1.9,0.2,2.8,0.7V110.7z"/>
	<path class="st0" d="M263.1,110.7c-0.4-0.7-0.9-1-1.8-1c-0.9,0-1.8,0.6-1.8,1.6c0,0.9,0.8,1.3,1.5,1.6l0.8,0.3
		c1.6,0.6,2.7,1.5,2.7,3.3c0,2-1.5,3.4-3.5,3.4c-1.8,0-3.2-1.3-3.4-3.1l1.4-0.3c0,1.2,1,2.1,2.1,2.1c1.2,0,2-1,2-2.1
		c0-1.2-1-1.7-1.9-2.1l-0.8-0.3c-1.3-0.5-2.4-1.3-2.4-2.8c0-1.8,1.6-2.8,3.2-2.8c1.2,0,2.2,0.6,2.8,1.7L263.1,110.7z"/>
</g>
</svg>
