<svg xmlns:xlink="http://www.w3.org/1999/xlink" width="432pt" height="432pt" viewBox="0 0 432 432" xmlns="http://www.w3.org/2000/svg" version="1.1">
 <metadata>
  <rdf:rdf xmlns:dc="http://purl.org/dc/elements/1.1/" xmlns:cc="http://creativecommons.org/ns#" xmlns:rdf="http://www.w3.org/1999/02/22-rdf-syntax-ns#">
   <cc:work>
    <dc:type rdf:resource="http://purl.org/dc/dcmitype/StillImage"/>
    <dc:date>2021-12-10T14:05:16.062862</dc:date>
    <dc:format>image/svg+xml</dc:format>
    <dc:creator>
     <cc:agent>
      <dc:title>Matplotlib v3.5.0, https://matplotlib.org/</dc:title>
     </cc:agent>
    </dc:creator>
   </cc:work>
  </rdf:rdf>
 </metadata>
 <defs>
  <style type="text/css">*{stroke-linejoin: round; stroke-linecap: butt}</style>
 </defs>
 <g id="figure_1">
  <g id="patch_1">
   <path d="M 0 432 &#xA;L 432 432 &#xA;L 432 0 &#xA;L 0 0 &#xA;z&#xA;" style="fill: #ffffff"/>
  </g>
  <g id="flower-plot">
   <g id="patch_2">
    <path d="M 216 300.613288 &#xA;C 238.435769 300.613288 259.955647 291.699463 275.820131 275.834978 &#xA;C 291.684615 259.970494 300.598441 238.450616 300.598441 216.014847 &#xA;C 300.598441 193.579079 291.684615 172.0592 275.820131 156.194716 &#xA;C 259.955647 140.330232 238.435769 131.416407 216 131.416407 &#xA;C 193.564231 131.416407 172.044353 140.330232 156.179869 156.194716 &#xA;C 140.315385 172.0592 131.401559 193.579079 131.401559 216.014847 &#xA;C 131.401559 238.450616 140.315385 259.970494 156.179869 275.834978 &#xA;C 172.044353 291.699463 193.564231 300.613288 216 300.613288 &#xA;z&#xA;" clip-path="url(#paec70650e7)" style="fill: #d3d3d3; stroke: #d3d3d3; stroke-linejoin: miter"/>
   </g>
   <g id="patch_3">
    <path d="M 300.598441 231.396382 &#xA;C 311.476389 231.396382 321.91027 229.775686 329.602141 226.891235 &#xA;C 337.294012 224.006783 341.615867 220.094078 341.615867 216.014847 &#xA;C 341.615867 211.935617 337.294012 208.022912 329.602141 205.13846 &#xA;C 321.91027 202.254008 311.476389 200.633313 300.598441 200.633313 &#xA;C 289.720492 200.633313 279.286612 202.254008 271.594741 205.13846 &#xA;C 263.90287 208.022912 259.581015 211.935617 259.581015 216.014847 &#xA;C 259.581015 220.094078 263.90287 224.006783 271.594741 226.891235 &#xA;C 279.286612 229.775686 289.720492 231.396382 300.598441 231.396382 &#xA;z&#xA;" clip-path="url(#paec70650e7)" style="fill: #bbedfe; opacity: 0.3; stroke: #bbedfe; stroke-linejoin: miter"/>
   </g>
   <g id="patch_4">
    <path d="M 301.505089 206.939187 &#xA;C 311.942404 203.874515 321.497036 199.379905 328.064688 194.445243 &#xA;C 334.632341 189.510581 337.676793 184.538761 336.527541 180.624768 &#xA;C 335.378289 176.710775 330.129164 174.174169 321.936223 173.573608 &#xA;C 313.743283 172.973048 303.275445 174.357566 292.83813 177.422238 &#xA;C 282.400815 180.48691 272.846183 184.98152 266.278531 189.916181 &#xA;C 259.710878 194.850843 256.666426 199.822663 257.815678 203.736657 &#xA;C 258.96493 207.65065 264.214055 210.187256 272.406996 210.787816 &#xA;C 280.599936 211.388377 291.067773 210.003859 301.505089 206.939187 &#xA;z&#xA;" clip-path="url(#paec70650e7)" style="fill: #a5dffe; opacity: 0.3; stroke: #a5dffe; stroke-linejoin: miter"/>
   </g>
   <g id="patch_5">
    <path d="M 295.484623 183.217248 &#xA;C 304.635735 177.336185 312.53706 170.331787 317.448421 163.746693 &#xA;C 322.359783 157.161598 323.88019 151.53345 321.674791 148.101783 &#xA;C 319.469393 144.670115 313.718249 143.715109 305.687983 145.447094 &#xA;C 297.657717 147.179078 288.003964 151.456644 278.852852 157.337707 &#xA;C 269.701739 163.21877 261.800415 170.223167 256.889053 176.808262 &#xA;C 251.977692 183.393356 250.457284 189.021505 252.662683 192.453172 &#xA;C 254.868081 195.884839 260.619225 196.839845 268.649491 195.107861 &#xA;C 276.679757 193.375876 286.33351 189.098311 295.484623 183.217248 &#xA;z&#xA;" clip-path="url(#paec70650e7)" style="fill: #fed700; opacity: 0.3; stroke: #fed700; stroke-linejoin: miter"/>
   </g>
   <g id="patch_6">
    <path d="M 283.024785 162.152375 &#xA;C 290.148327 153.93137 295.756225 144.984639 298.613406 137.282597 &#xA;C 301.470588 129.580554 301.343775 123.752038 298.260899 121.08071 &#xA;C 295.178022 118.409382 289.390783 119.113345 282.173756 123.037559 &#xA;C 274.956728 126.961773 266.89915 133.785844 259.775609 142.006849 &#xA;C 252.652067 150.227854 247.044169 159.174584 244.186988 166.876627 &#xA;C 241.329806 174.578669 241.456619 180.407186 244.539495 183.078514 &#xA;C 247.622372 185.749842 253.40961 185.045879 260.626638 181.121665 &#xA;C 267.843665 177.197451 275.901244 170.37338 283.024785 162.152375 &#xA;z&#xA;" clip-path="url(#paec70650e7)" style="fill: #cfe757; opacity: 0.3; stroke: #cfe757; stroke-linejoin: miter"/>
   </g>
   <g id="patch_7">
    <path d="M 265.134998 145.451119 &#xA;C 269.653862 135.556189 272.514016 125.391937 273.085545 117.19692 &#xA;C 273.657074 109.001903 271.893316 103.44521 268.182717 101.750636 &#xA;C 264.472118 100.056062 259.117633 102.361963 253.298525 108.160491 &#xA;C 247.479416 113.959018 241.670789 122.776748 237.151926 132.671678 &#xA;C 232.633063 142.566608 229.772909 152.730861 229.20138 160.925878 &#xA;C 228.629851 169.120894 230.393609 174.677588 234.104208 176.372162 &#xA;C 237.814807 178.066735 243.169292 175.760835 248.9884 169.962307 &#xA;C 254.807508 164.163779 260.616135 155.346049 265.134998 145.451119 &#xA;z&#xA;" clip-path="url(#paec70650e7)" style="fill: #e8d750; opacity: 0.3; stroke: #e8d750; stroke-linejoin: miter"/>
   </g>
   <g id="patch_8">
    <path d="M 243.264586 134.466517 &#xA;C 244.81268 123.699291 244.693377 113.140963 242.932952 105.116884 &#xA;C 241.172527 97.092805 237.914712 92.258104 233.877002 91.677569 &#xA;C 229.839292 91.097034 225.351348 94.818063 221.401589 102.021141 &#xA;C 217.451829 109.22422 214.362734 119.321249 212.814641 130.088476 &#xA;C 211.266547 140.855703 211.38585 151.41403 213.146275 159.43811 &#xA;C 214.9067 167.462189 218.164515 172.296889 222.202225 172.877424 &#xA;C 226.239935 173.457959 230.727879 169.736931 234.677638 162.533852 &#xA;C 238.627398 155.330773 241.716493 145.233744 243.264586 134.466517 &#xA;z&#xA;" clip-path="url(#paec70650e7)" style="fill: #f4d9ef; opacity: 0.3; stroke: #f4d9ef; stroke-linejoin: miter"/>
   </g>
   <g id="patch_9">
    <path d="M 219.185359 130.088476 &#xA;C 217.637266 119.321249 214.548171 109.22422 210.598411 102.021141 &#xA;C 206.648652 94.818063 202.160708 91.097034 198.122998 91.677569 &#xA;C 194.085288 92.258104 190.827473 97.092805 189.067048 105.116884 &#xA;C 187.306623 113.140963 187.18732 123.699291 188.735414 134.466517 &#xA;C 190.283507 145.233744 193.372602 155.330773 197.322362 162.533852 &#xA;C 201.272121 169.736931 205.760065 173.457959 209.797775 172.877424 &#xA;C 213.835485 172.296889 217.0933 167.462189 218.853725 159.43811 &#xA;C 220.61415 151.41403 220.733453 140.855703 219.185359 130.088476 &#xA;z&#xA;" clip-path="url(#paec70650e7)" style="fill: #d3ec9b; opacity: 0.3; stroke: #d3ec9b; stroke-linejoin: miter"/>
   </g>
   <g id="patch_10">
    <path d="M 194.848074 132.671678 &#xA;C 190.329211 122.776748 184.520584 113.959018 178.701475 108.160491 &#xA;C 172.882367 102.361963 167.527882 100.056062 163.817283 101.750636 &#xA;C 160.106684 103.44521 158.342926 109.001903 158.914455 117.19692 &#xA;C 159.485984 125.391937 162.346138 135.556189 166.865002 145.451119 &#xA;C 171.383865 155.346049 177.192492 164.163779 183.0116 169.962307 &#xA;C 188.830708 175.760835 194.185193 178.066735 197.895792 176.372162 &#xA;C 201.606391 174.677588 203.370149 169.120894 202.79862 160.925878 &#xA;C 202.227091 152.730861 199.366937 142.566608 194.848074 132.671678 &#xA;z&#xA;" clip-path="url(#paec70650e7)" style="fill: #79ebea; opacity: 0.3; stroke: #79ebea; stroke-linejoin: miter"/>
   </g>
   <g id="patch_11">
    <path d="M 172.224391 142.006849 &#xA;C 165.10085 133.785844 157.043272 126.961773 149.826244 123.037559 &#xA;C 142.609217 119.113345 136.821978 118.409382 133.739101 121.08071 &#xA;C 130.656225 123.752038 130.529412 129.580554 133.386594 137.282597 &#xA;C 136.243775 144.984639 141.851673 153.93137 148.975215 162.152375 &#xA;C 156.098756 170.37338 164.156335 177.197451 171.373362 181.121665 &#xA;C 178.59039 185.045879 184.377628 185.749842 187.460505 183.078514 &#xA;C 190.543381 180.407186 190.670194 174.578669 187.813012 166.876627 &#xA;C 184.955831 159.174584 179.347933 150.227854 172.224391 142.006849 &#xA;z&#xA;" clip-path="url(#paec70650e7)" style="fill: #a5ed23; opacity: 0.3; stroke: #a5ed23; stroke-linejoin: miter"/>
   </g>
   <g id="patch_12">
    <path d="M 153.147148 157.337707 &#xA;C 143.996036 151.456644 134.342283 147.179078 126.312017 145.447094 &#xA;C 118.281751 143.715109 112.530607 144.670115 110.325209 148.101783 &#xA;C 108.11981 151.53345 109.640217 157.161598 114.551579 163.746693 &#xA;C 119.46294 170.331787 127.364265 177.336185 136.515377 183.217248 &#xA;C 145.66649 189.098311 155.320243 193.375876 163.350509 195.107861 &#xA;C 171.380775 196.839845 177.131919 195.884839 179.337317 192.453172 &#xA;C 181.542716 189.021505 180.022308 183.393356 175.110947 176.808262 &#xA;C 170.199585 170.223167 162.298261 163.21877 153.147148 157.337707 &#xA;z&#xA;" clip-path="url(#paec70650e7)" style="fill: #fefe7c; opacity: 0.3; stroke: #fefe7c; stroke-linejoin: miter"/>
   </g>
   <g id="patch_13">
    <path d="M 139.16187 177.422238 &#xA;C 128.724555 174.357566 118.256717 172.973048 110.063777 173.573608 &#xA;C 101.870836 174.174169 96.621711 176.710775 95.472459 180.624768 &#xA;C 94.323207 184.538761 97.367659 189.510581 103.935312 194.445243 &#xA;C 110.502964 199.379905 120.057596 203.874515 130.494911 206.939187 &#xA;C 140.932227 210.003859 151.400064 211.388377 159.593004 210.787816 &#xA;C 167.785945 210.187256 173.03507 207.65065 174.184322 203.736657 &#xA;C 175.333574 199.822663 172.289122 194.850843 165.721469 189.916181 &#xA;C 159.153817 184.98152 149.599185 180.48691 139.16187 177.422238 &#xA;z&#xA;" clip-path="url(#paec70650e7)" style="fill: #c2fe47; opacity: 0.3; stroke: #c2fe47; stroke-linejoin: miter"/>
   </g>
   <g id="patch_14">
    <path d="M 131.401559 200.633313 &#xA;C 120.523611 200.633313 110.08973 202.254008 102.397859 205.13846 &#xA;C 94.705988 208.022912 90.384133 211.935617 90.384133 216.014847 &#xA;C 90.384133 220.094078 94.705988 224.006783 102.397859 226.891235 &#xA;C 110.08973 229.775686 120.523611 231.396382 131.401559 231.396382 &#xA;C 142.279508 231.396382 152.713388 229.775686 160.405259 226.891235 &#xA;C 168.09713 224.006783 172.418985 220.094078 172.418985 216.014847 &#xA;C 172.418985 211.935617 168.09713 208.022912 160.405259 205.13846 &#xA;C 152.713388 202.254008 142.279508 200.633313 131.401559 200.633313 &#xA;z&#xA;" clip-path="url(#paec70650e7)" style="fill: #e9fefe; opacity: 0.3; stroke: #e9fefe; stroke-linejoin: miter"/>
   </g>
   <g id="patch_15">
    <path d="M 130.494911 225.090508 &#xA;C 120.057596 228.15518 110.502964 232.64979 103.935312 237.584452 &#xA;C 97.367659 242.519113 94.323207 247.490933 95.472459 251.404927 &#xA;C 96.621711 255.31892 101.870836 257.855526 110.063777 258.456086 &#xA;C 118.256717 259.056647 128.724555 257.672129 139.16187 254.607457 &#xA;C 149.599185 251.542785 159.153817 247.048175 165.721469 242.113513 &#xA;C 172.289122 237.178852 175.333574 232.207031 174.184322 228.293038 &#xA;C 173.03507 224.379045 167.785945 221.842439 159.593004 221.241878 &#xA;C 151.400064 220.641318 140.932227 222.025836 130.494911 225.090508 &#xA;z&#xA;" clip-path="url(#paec70650e7)" style="fill: #b7dfce; opacity: 0.3; stroke: #b7dfce; stroke-linejoin: miter"/>
   </g>
   <g id="patch_16">
    <path d="M 136.515377 248.812447 &#xA;C 127.364265 254.69351 119.46294 261.697907 114.551579 268.283002 &#xA;C 109.640217 274.868097 108.11981 280.496245 110.325209 283.927912 &#xA;C 112.530607 287.359579 118.281751 288.314585 126.312017 286.582601 &#xA;C 134.342283 284.850617 143.996036 280.573051 153.147148 274.691988 &#xA;C 162.298261 268.810925 170.199585 261.806527 175.110947 255.221433 &#xA;C 180.022308 248.636338 181.542716 243.00819 179.337317 239.576523 &#xA;C 177.131919 236.144856 171.380775 235.18985 163.350509 236.921834 &#xA;C 155.320243 238.653818 145.66649 242.931384 136.515377 248.812447 &#xA;z&#xA;" clip-path="url(#paec70650e7)" style="fill: #a2fefd; opacity: 0.3; stroke: #a2fefd; stroke-linejoin: miter"/>
   </g>
   <g id="patch_17">
    <path d="M 148.975215 269.87732 &#xA;C 141.851673 278.098325 136.243775 287.045055 133.386594 294.747098 &#xA;C 130.529412 302.44914 130.656225 308.277657 133.739101 310.948985 &#xA;C 136.821978 313.620313 142.609217 312.91635 149.826244 308.992136 &#xA;C 157.043272 305.067922 165.10085 298.243851 172.224391 290.022846 &#xA;C 179.347933 281.801841 184.955831 272.855111 187.813012 265.153068 &#xA;C 190.670194 257.451026 190.543381 251.622509 187.460505 248.951181 &#xA;C 184.377628 246.279853 178.59039 246.983816 171.373362 250.90803 &#xA;C 164.156335 254.832244 156.098756 261.656315 148.975215 269.87732 &#xA;z&#xA;" clip-path="url(#paec70650e7)" style="fill: #7afeda; opacity: 0.3; stroke: #7afeda; stroke-linejoin: miter"/>
   </g>
   <g id="patch_18">
    <path d="M 166.865002 286.578575 &#xA;C 162.346138 296.473505 159.485984 306.637758 158.914455 314.832775 &#xA;C 158.342926 323.027791 160.106684 328.584485 163.817283 330.279059 &#xA;C 167.527882 331.973632 172.882367 329.667731 178.701475 323.869204 &#xA;C 184.520584 318.070676 190.329211 309.252946 194.848074 299.358016 &#xA;C 199.366937 289.463086 202.227091 279.298834 202.79862 271.103817 &#xA;C 203.370149 262.9088 201.606391 257.352107 197.895792 255.657533 &#xA;C 194.185193 253.962959 188.830708 256.26886 183.0116 262.067388 &#xA;C 177.192492 267.865915 171.383865 276.683645 166.865002 286.578575 &#xA;z&#xA;" clip-path="url(#paec70650e7)" style="fill: #b9eee5; opacity: 0.3; stroke: #b9eee5; stroke-linejoin: miter"/>
   </g>
   <g id="patch_19">
    <path d="M 188.735414 297.563177 &#xA;C 187.18732 308.330404 187.306623 318.888731 189.067048 326.912811 &#xA;C 190.827473 334.93689 194.085288 339.77159 198.122998 340.352125 &#xA;C 202.160708 340.93266 206.648652 337.211632 210.598411 330.008553 &#xA;C 214.548171 322.805475 217.637266 312.708445 219.185359 301.941219 &#xA;C 220.733453 291.173992 220.61415 280.615664 218.853725 272.591585 &#xA;C 217.0933 264.567506 213.835485 259.732805 209.797775 259.15227 &#xA;C 205.760065 258.571735 201.272121 262.292764 197.322362 269.495842 &#xA;C 193.372602 276.698921 190.283507 286.795951 188.735414 297.563177 &#xA;z&#xA;" clip-path="url(#paec70650e7)" style="fill: #c9fbfe; opacity: 0.3; stroke: #c9fbfe; stroke-linejoin: miter"/>
   </g>
   <g id="patch_20">
    <path d="M 212.814641 301.941219 &#xA;C 214.362734 312.708445 217.451829 322.805475 221.401589 330.008553 &#xA;C 225.351348 337.211632 229.839292 340.93266 233.877002 340.352125 &#xA;C 237.914712 339.77159 241.172527 334.93689 242.932952 326.912811 &#xA;C 244.693377 318.888731 244.81268 308.330404 243.264586 297.563177 &#xA;C 241.716493 286.795951 238.627398 276.698921 234.677638 269.495842 &#xA;C 230.727879 262.292764 226.239935 258.571735 222.202225 259.15227 &#xA;C 218.164515 259.732805 214.9067 264.567506 213.146275 272.591585 &#xA;C 211.38585 280.615664 211.266547 291.173992 212.814641 301.941219 &#xA;z&#xA;" clip-path="url(#paec70650e7)" style="fill: #a6e6b1; opacity: 0.3; stroke: #a6e6b1; stroke-linejoin: miter"/>
   </g>
   <g id="patch_21">
    <path d="M 237.151926 299.358016 &#xA;C 241.670789 309.252946 247.479416 318.070676 253.298525 323.869204 &#xA;C 259.117633 329.667731 264.472118 331.973632 268.182717 330.279059 &#xA;C 271.893316 328.584485 273.657074 323.027791 273.085545 314.832775 &#xA;C 272.514016 306.637758 269.653862 296.473505 265.134998 286.578575 &#xA;C 260.616135 276.683645 254.807508 267.865915 248.9884 262.067388 &#xA;C 243.169292 256.26886 237.814807 253.962959 234.104208 255.657533 &#xA;C 230.393609 257.352107 228.629851 262.9088 229.20138 271.103817 &#xA;C 229.772909 279.298834 232.633063 289.463086 237.151926 299.358016 &#xA;z&#xA;" clip-path="url(#paec70650e7)" style="fill: #e6fe00; opacity: 0.3; stroke: #e6fe00; stroke-linejoin: miter"/>
   </g>
   <g id="patch_22">
    <path d="M 259.775609 290.022846 &#xA;C 266.89915 298.243851 274.956728 305.067922 282.173756 308.992136 &#xA;C 289.390783 312.91635 295.178022 313.620313 298.260899 310.948985 &#xA;C 301.343775 308.277657 301.470588 302.44914 298.613406 294.747098 &#xA;C 295.756225 287.045055 290.148327 278.098325 283.024785 269.87732 &#xA;C 275.901244 261.656315 267.843665 254.832244 260.626638 250.90803 &#xA;C 253.40961 246.983816 247.622372 246.279853 244.539495 248.951181 &#xA;C 241.456619 251.622509 241.329806 257.451026 244.186988 265.153068 &#xA;C 247.044169 272.855111 252.652067 281.801841 259.775609 290.022846 &#xA;z&#xA;" clip-path="url(#paec70650e7)" style="fill: #ddfec4; opacity: 0.3; stroke: #ddfec4; stroke-linejoin: miter"/>
   </g>
   <g id="patch_23">
    <path d="M 278.852852 274.691988 &#xA;C 288.003964 280.573051 297.657717 284.850617 305.687983 286.582601 &#xA;C 313.718249 288.314585 319.469393 287.359579 321.674791 283.927912 &#xA;C 323.88019 280.496245 322.359783 274.868097 317.448421 268.283002 &#xA;C 312.53706 261.697907 304.635735 254.69351 295.484623 248.812447 &#xA;C 286.33351 242.931384 276.679757 238.653818 268.649491 236.921834 &#xA;C 260.619225 235.18985 254.868081 236.144856 252.662683 239.576523 &#xA;C 250.457284 243.00819 251.977692 248.636338 256.889053 255.221433 &#xA;C 261.800415 261.806527 269.701739 268.810925 278.852852 274.691988 &#xA;z&#xA;" clip-path="url(#paec70650e7)" style="fill: #fef894; opacity: 0.3; stroke: #fef894; stroke-linejoin: miter"/>
   </g>
   <g id="patch_24">
    <path d="M 292.83813 254.607457 &#xA;C 303.275445 257.672129 313.743283 259.056647 321.936223 258.456086 &#xA;C 330.129164 257.855526 335.378289 255.31892 336.527541 251.404927 &#xA;C 337.676793 247.490933 334.632341 242.519113 328.064688 237.584452 &#xA;C 321.497036 232.64979 311.942404 228.15518 301.505089 225.090508 &#xA;C 291.067773 222.025836 280.599936 220.641318 272.406996 221.241878 &#xA;C 264.214055 221.842439 258.96493 224.379045 257.815678 228.293038 &#xA;C 256.666426 232.207031 259.710878 237.178852 266.278531 242.113513 &#xA;C 272.846183 247.048175 282.400815 251.542785 292.83813 254.607457 &#xA;z&#xA;" clip-path="url(#paec70650e7)" style="fill: #c0d9ec; opacity: 0.3; stroke: #c0d9ec; stroke-linejoin: miter"/>
   </g>
   <g id="flower-core" style="cursor: pointer;">
    <path d="M 216 244.214328 &#xA;C 223.47859 244.214328 230.651882 241.243052 235.940044 235.954891 &#xA;C 241.228205 230.66673 244.19948 223.493437 244.19948 216.014847 &#xA;C 244.19948 208.536258 241.228205 201.362965 235.940044 196.074804 &#xA;C 230.651882 190.786642 223.47859 187.815367 216 187.815367 &#xA;C 208.52141 187.815367 201.348118 190.786642 196.059956 196.074804 &#xA;C 190.771795 201.362965 187.80052 208.536258 187.80052 216.014847 &#xA;C 187.80052 223.493437 190.771795 230.66673 196.059956 235.954891 &#xA;C 201.348118 241.243052 208.52141 244.214328 216 244.214328 &#xA;z&#xA;" clip-path="url(#paec70650e7)" style="fill: #a9a9a9; stroke: #a9a9a9; stroke-linejoin: miter"/>
   </g>
   <g id="flower-unique-FAM19471-i1-1.1" style="cursor: pointer;">
    <g id="patch_25">
     <path d="M 311.173067 224.529571 &#xA;L 331.041241 224.529571 &#xA;L 331.041241 207.500124 &#xA;L 311.173067 207.500124 &#xA;z&#xA;" style="fill: #ffffff; opacity: 0; stroke: #000000; stroke-linejoin: miter"/>
    </g>
    <!-- 10 -->
    <g transform="translate(315.17931 218.585714)scale(0.093168 -0.093168)">
     <defs>
      <path id="DejaVuSans-31" d="M 794 531 &#xA;L 1825 531 &#xA;L 1825 4091 &#xA;L 703 3866 &#xA;L 703 4441 &#xA;L 1819 4666 &#xA;L 2450 4666 &#xA;L 2450 531 &#xA;L 3481 531 &#xA;L 3481 0 &#xA;L 794 0 &#xA;L 794 531 &#xA;z&#xA;" transform="scale(0.015625)"/>
      <path id="DejaVuSans-30" d="M 2034 4250 &#xA;Q 1547 4250 1301 3770 &#xA;Q 1056 3291 1056 2328 &#xA;Q 1056 1369 1301 889 &#xA;Q 1547 409 2034 409 &#xA;Q 2525 409 2770 889 &#xA;Q 3016 1369 3016 2328 &#xA;Q 3016 3291 2770 3770 &#xA;Q 2525 4250 2034 4250 &#xA;z&#xA;M 2034 4750 &#xA;Q 2819 4750 3233 4129 &#xA;Q 3647 3509 3647 2328 &#xA;Q 3647 1150 3233 529 &#xA;Q 2819 -91 2034 -91 &#xA;Q 1250 -91 836 529 &#xA;Q 422 1150 422 2328 &#xA;Q 422 3509 836 4129 &#xA;Q 1250 4750 2034 4750 &#xA;z&#xA;" transform="scale(0.015625)"/>
     </defs>
     <use xlink:href="#DejaVuSans-31"/>
     <use xlink:href="#DejaVuSans-30" x="63.623047"/>
    </g>
   </g>
   <g id="flower-shell-FAM19471-i1-1.1">
    <g id="patch_26">
     <path d="M 264.227798 224.529571 &#xA;L 295.951658 224.529571 &#xA;L 295.951658 207.500124 &#xA;L 264.227798 207.500124 &#xA;z&#xA;" style="fill: #ffffff; opacity: 0; stroke: #000000; stroke-linejoin: miter"/>
    </g>
    <!-- 1104 -->
    <g transform="translate(268.234041 218.585714)scale(0.093168 -0.093168)">
     <defs>
      <path id="DejaVuSans-34" d="M 2419 4116 &#xA;L 825 1625 &#xA;L 2419 1625 &#xA;L 2419 4116 &#xA;z&#xA;M 2253 4666 &#xA;L 3047 4666 &#xA;L 3047 1625 &#xA;L 3713 1625 &#xA;L 3713 1100 &#xA;L 3047 1100 &#xA;L 3047 0 &#xA;L 2419 0 &#xA;L 2419 1100 &#xA;L 313 1100 &#xA;L 313 1709 &#xA;L 2253 4666 &#xA;z&#xA;" transform="scale(0.015625)"/>
     </defs>
     <use xlink:href="#DejaVuSans-31"/>
     <use xlink:href="#DejaVuSans-31" x="63.623047"/>
     <use xlink:href="#DejaVuSans-30" x="127.246094"/>
     <use xlink:href="#DejaVuSans-34" x="190.869141"/>
    </g>
   </g>
   <g id="flower-genome-FAM19471-i1-1.1" style="cursor: pointer;">
    <g id="patch_27">
     <path d="M 339.660494 224.529571 &#xA;L 426.288236 224.529571 &#xA;L 426.288236 207.500124 &#xA;L 339.660494 207.500124 &#xA;z&#xA;" style="fill: #ffffff; opacity: 0; stroke: #000000; stroke-linejoin: miter"/>
    </g>
    <!-- FAM19471-i1-1.1 -->
    <g transform="translate(343.666738 218.585714)scale(0.093168 -0.093168)">
     <defs>
      <path id="DejaVuSans-46" d="M 628 4666 &#xA;L 3309 4666 &#xA;L 3309 4134 &#xA;L 1259 4134 &#xA;L 1259 2759 &#xA;L 3109 2759 &#xA;L 3109 2228 &#xA;L 1259 2228 &#xA;L 1259 0 &#xA;L 628 0 &#xA;L 628 4666 &#xA;z&#xA;" transform="scale(0.015625)"/>
      <path id="DejaVuSans-41" d="M 2188 4044 &#xA;L 1331 1722 &#xA;L 3047 1722 &#xA;L 2188 4044 &#xA;z&#xA;M 1831 4666 &#xA;L 2547 4666 &#xA;L 4325 0 &#xA;L 3669 0 &#xA;L 3244 1197 &#xA;L 1141 1197 &#xA;L 716 0 &#xA;L 50 0 &#xA;L 1831 4666 &#xA;z&#xA;" transform="scale(0.015625)"/>
      <path id="DejaVuSans-4d" d="M 628 4666 &#xA;L 1569 4666 &#xA;L 2759 1491 &#xA;L 3956 4666 &#xA;L 4897 4666 &#xA;L 4897 0 &#xA;L 4281 0 &#xA;L 4281 4097 &#xA;L 3078 897 &#xA;L 2444 897 &#xA;L 1241 4097 &#xA;L 1241 0 &#xA;L 628 0 &#xA;L 628 4666 &#xA;z&#xA;" transform="scale(0.015625)"/>
      <path id="DejaVuSans-39" d="M 703 97 &#xA;L 703 672 &#xA;Q 941 559 1184 500 &#xA;Q 1428 441 1663 441 &#xA;Q 2288 441 2617 861 &#xA;Q 2947 1281 2994 2138 &#xA;Q 2813 1869 2534 1725 &#xA;Q 2256 1581 1919 1581 &#xA;Q 1219 1581 811 2004 &#xA;Q 403 2428 403 3163 &#xA;Q 403 3881 828 4315 &#xA;Q 1253 4750 1959 4750 &#xA;Q 2769 4750 3195 4129 &#xA;Q 3622 3509 3622 2328 &#xA;Q 3622 1225 3098 567 &#xA;Q 2575 -91 1691 -91 &#xA;Q 1453 -91 1209 -44 &#xA;Q 966 3 703 97 &#xA;z&#xA;M 1959 2075 &#xA;Q 2384 2075 2632 2365 &#xA;Q 2881 2656 2881 3163 &#xA;Q 2881 3666 2632 3958 &#xA;Q 2384 4250 1959 4250 &#xA;Q 1534 4250 1286 3958 &#xA;Q 1038 3666 1038 3163 &#xA;Q 1038 2656 1286 2365 &#xA;Q 1534 2075 1959 2075 &#xA;z&#xA;" transform="scale(0.015625)"/>
      <path id="DejaVuSans-37" d="M 525 4666 &#xA;L 3525 4666 &#xA;L 3525 4397 &#xA;L 1831 0 &#xA;L 1172 0 &#xA;L 2766 4134 &#xA;L 525 4134 &#xA;L 525 4666 &#xA;z&#xA;" transform="scale(0.015625)"/>
      <path id="DejaVuSans-2d" d="M 313 2009 &#xA;L 1997 2009 &#xA;L 1997 1497 &#xA;L 313 1497 &#xA;L 313 2009 &#xA;z&#xA;" transform="scale(0.015625)"/>
      <path id="DejaVuSans-69" d="M 603 3500 &#xA;L 1178 3500 &#xA;L 1178 0 &#xA;L 603 0 &#xA;L 603 3500 &#xA;z&#xA;M 603 4863 &#xA;L 1178 4863 &#xA;L 1178 4134 &#xA;L 603 4134 &#xA;L 603 4863 &#xA;z&#xA;" transform="scale(0.015625)"/>
      <path id="DejaVuSans-2e" d="M 684 794 &#xA;L 1344 794 &#xA;L 1344 0 &#xA;L 684 0 &#xA;L 684 794 &#xA;z&#xA;" transform="scale(0.015625)"/>
     </defs>
     <use xlink:href="#DejaVuSans-46"/>
     <use xlink:href="#DejaVuSans-41" x="48.394531"/>
     <use xlink:href="#DejaVuSans-4d" x="116.802734"/>
     <use xlink:href="#DejaVuSans-31" x="203.082031"/>
     <use xlink:href="#DejaVuSans-39" x="266.705078"/>
     <use xlink:href="#DejaVuSans-34" x="330.328125"/>
     <use xlink:href="#DejaVuSans-37" x="393.951172"/>
     <use xlink:href="#DejaVuSans-31" x="457.574219"/>
     <use xlink:href="#DejaVuSans-2d" x="521.197266"/>
     <use xlink:href="#DejaVuSans-69" x="557.28125"/>
     <use xlink:href="#DejaVuSans-31" x="585.064453"/>
     <use xlink:href="#DejaVuSans-2d" x="648.6875"/>
     <use xlink:href="#DejaVuSans-31" x="684.771484"/>
     <use xlink:href="#DejaVuSans-2e" x="748.394531"/>
     <use xlink:href="#DejaVuSans-31" x="780.181641"/>
    </g>
   </g>
   <g id="flower-unique-FAM21784-i1-1.1" style="cursor: pointer;">
    <g id="patch_28">
     <path d="M 312.560626 196.53628 &#xA;L 325.936275 192.608835 &#xA;L 321.138525 176.2692 &#xA;L 307.762876 180.196645 &#xA;z&#xA;" style="fill: #ffffff; opacity: 0; stroke: #000000; stroke-linejoin: miter"/>
    </g>
    <!-- 0 -->
    <g transform="translate(314.73001 189.704502)rotate(-16.363636)scale(0.093168 -0.093168)">
     <use xlink:href="#DejaVuSans-30"/>
    </g>
   </g>
   <g id="flower-shell-FAM21784-i1-1.1">
    <g id="patch_29">
     <path d="M 264.673108 210.597324 &#xA;L 295.111929 201.65968 &#xA;L 290.314179 185.320045 &#xA;L 259.875358 194.257689 &#xA;z&#xA;" style="fill: #ffffff; opacity: 0; stroke: #000000; stroke-linejoin: miter"/>
    </g>
    <!-- 1017 -->
    <g transform="translate(266.842493 203.765546)rotate(-16.363636)scale(0.093168 -0.093168)">
     <use xlink:href="#DejaVuSans-31"/>
     <use xlink:href="#DejaVuSans-30" x="63.623047"/>
     <use xlink:href="#DejaVuSans-31" x="127.246094"/>
     <use xlink:href="#DejaVuSans-37" x="190.869141"/>
    </g>
   </g>
   <g id="flower-genome-FAM21784-i1-1.1" style="cursor: pointer;">
    <g id="patch_30">
     <path d="M 337.05025 189.345478 &#xA;L 420.16896 164.939622 &#xA;L 415.37121 148.599987 &#xA;L 332.2525 173.005843 &#xA;z&#xA;" style="fill: #ffffff; opacity: 0; stroke: #000000; stroke-linejoin: miter"/>
    </g>
    <!-- FAM21784-i1-1.1 -->
    <g transform="translate(339.219635 182.5137)rotate(-16.363636)scale(0.093168 -0.093168)">
     <defs>
      <path id="DejaVuSans-32" d="M 1228 531 &#xA;L 3431 531 &#xA;L 3431 0 &#xA;L 469 0 &#xA;L 469 531 &#xA;Q 828 903 1448 1529 &#xA;Q 2069 2156 2228 2338 &#xA;Q 2531 2678 2651 2914 &#xA;Q 2772 3150 2772 3378 &#xA;Q 2772 3750 2511 3984 &#xA;Q 2250 4219 1831 4219 &#xA;Q 1534 4219 1204 4116 &#xA;Q 875 4013 500 3803 &#xA;L 500 4441 &#xA;Q 881 4594 1212 4672 &#xA;Q 1544 4750 1819 4750 &#xA;Q 2544 4750 2975 4387 &#xA;Q 3406 4025 3406 3419 &#xA;Q 3406 3131 3298 2873 &#xA;Q 3191 2616 2906 2266 &#xA;Q 2828 2175 2409 1742 &#xA;Q 1991 1309 1228 531 &#xA;z&#xA;" transform="scale(0.015625)"/>
      <path id="DejaVuSans-38" d="M 2034 2216 &#xA;Q 1584 2216 1326 1975 &#xA;Q 1069 1734 1069 1313 &#xA;Q 1069 891 1326 650 &#xA;Q 1584 409 2034 409 &#xA;Q 2484 409 2743 651 &#xA;Q 3003 894 3003 1313 &#xA;Q 3003 1734 2745 1975 &#xA;Q 2488 2216 2034 2216 &#xA;z&#xA;M 1403 2484 &#xA;Q 997 2584 770 2862 &#xA;Q 544 3141 544 3541 &#xA;Q 544 4100 942 4425 &#xA;Q 1341 4750 2034 4750 &#xA;Q 2731 4750 3128 4425 &#xA;Q 3525 4100 3525 3541 &#xA;Q 3525 3141 3298 2862 &#xA;Q 3072 2584 2669 2484 &#xA;Q 3125 2378 3379 2068 &#xA;Q 3634 1759 3634 1313 &#xA;Q 3634 634 3220 271 &#xA;Q 2806 -91 2034 -91 &#xA;Q 1263 -91 848 271 &#xA;Q 434 634 434 1313 &#xA;Q 434 1759 690 2068 &#xA;Q 947 2378 1403 2484 &#xA;z&#xA;M 1172 3481 &#xA;Q 1172 3119 1398 2916 &#xA;Q 1625 2713 2034 2713 &#xA;Q 2441 2713 2670 2916 &#xA;Q 2900 3119 2900 3481 &#xA;Q 2900 3844 2670 4047 &#xA;Q 2441 4250 2034 4250 &#xA;Q 1625 4250 1398 4047 &#xA;Q 1172 3844 1172 3481 &#xA;z&#xA;" transform="scale(0.015625)"/>
     </defs>
     <use xlink:href="#DejaVuSans-46"/>
     <use xlink:href="#DejaVuSans-41" x="48.394531"/>
     <use xlink:href="#DejaVuSans-4d" x="116.802734"/>
     <use xlink:href="#DejaVuSans-32" x="203.082031"/>
     <use xlink:href="#DejaVuSans-31" x="266.705078"/>
     <use xlink:href="#DejaVuSans-37" x="330.328125"/>
     <use xlink:href="#DejaVuSans-38" x="393.951172"/>
     <use xlink:href="#DejaVuSans-34" x="457.574219"/>
     <use xlink:href="#DejaVuSans-2d" x="521.197266"/>
     <use xlink:href="#DejaVuSans-69" x="557.28125"/>
     <use xlink:href="#DejaVuSans-31" x="585.064453"/>
     <use xlink:href="#DejaVuSans-2d" x="648.6875"/>
     <use xlink:href="#DejaVuSans-31" x="684.771484"/>
     <use xlink:href="#DejaVuSans-2e" x="748.394531"/>
     <use xlink:href="#DejaVuSans-31" x="780.181641"/>
    </g>
   </g>
   <g id="flower-unique-FAM21277-i1-1.1" style="cursor: pointer;">
    <g id="patch_31">
     <path d="M 303.161495 170.121027 &#xA;L 314.888848 162.584315 &#xA;L 305.682033 148.258233 &#xA;L 293.954681 155.794944 &#xA;z&#xA;" style="fill: #ffffff; opacity: 0; stroke: #000000; stroke-linejoin: miter"/>
    </g>
    <!-- 1 -->
    <g transform="translate(303.318271 162.954798)rotate(-32.727273)scale(0.093168 -0.093168)">
     <use xlink:href="#DejaVuSans-31"/>
    </g>
   </g>
   <g id="flower-shell-FAM21277-i1-1.1">
    <g id="patch_32">
     <path d="M 261.175212 197.103973 &#xA;L 287.863022 179.952759 &#xA;L 278.656208 165.626676 &#xA;L 251.968398 182.77789 &#xA;z&#xA;" style="fill: #ffffff; opacity: 0; stroke: #000000; stroke-linejoin: miter"/>
    </g>
    <!-- 1004 -->
    <g transform="translate(261.331988 189.937744)rotate(-32.727273)scale(0.093168 -0.093168)">
     <use xlink:href="#DejaVuSans-31"/>
     <use xlink:href="#DejaVuSans-30" x="63.623047"/>
     <use xlink:href="#DejaVuSans-30" x="127.246094"/>
     <use xlink:href="#DejaVuSans-34" x="190.869141"/>
    </g>
   </g>
   <g id="flower-genome-FAM21277-i1-1.1" style="cursor: pointer;">
    <g id="patch_33">
     <path d="M 324.633235 156.321978 &#xA;L 397.509129 109.487485 &#xA;L 388.302314 95.161402 &#xA;L 315.42642 141.995895 &#xA;z&#xA;" style="fill: #ffffff; opacity: 0; stroke: #000000; stroke-linejoin: miter"/>
    </g>
    <!-- FAM21277-i1-1.1 -->
    <g transform="translate(324.79001 149.155749)rotate(-32.727273)scale(0.093168 -0.093168)">
     <use xlink:href="#DejaVuSans-46"/>
     <use xlink:href="#DejaVuSans-41" x="48.394531"/>
     <use xlink:href="#DejaVuSans-4d" x="116.802734"/>
     <use xlink:href="#DejaVuSans-32" x="203.082031"/>
     <use xlink:href="#DejaVuSans-31" x="266.705078"/>
     <use xlink:href="#DejaVuSans-32" x="330.328125"/>
     <use xlink:href="#DejaVuSans-37" x="393.951172"/>
     <use xlink:href="#DejaVuSans-37" x="457.574219"/>
     <use xlink:href="#DejaVuSans-2d" x="521.197266"/>
     <use xlink:href="#DejaVuSans-69" x="557.28125"/>
     <use xlink:href="#DejaVuSans-31" x="585.064453"/>
     <use xlink:href="#DejaVuSans-2d" x="648.6875"/>
     <use xlink:href="#DejaVuSans-31" x="684.771484"/>
     <use xlink:href="#DejaVuSans-2e" x="748.394531"/>
     <use xlink:href="#DejaVuSans-31" x="780.181641"/>
    </g>
   </g>
   <g id="flower-unique-FAM17927-i1-1.1" style="cursor: pointer;">
    <g id="patch_34">
     <path d="M 286.701059 147.423818 &#xA;L 295.830034 136.888419 &#xA;L 282.960037 125.736503 &#xA;L 273.831061 136.271902 &#xA;z&#xA;" style="fill: #ffffff; opacity: 0; stroke: #000000; stroke-linejoin: miter"/>
    </g>
    <!-- 0 -->
    <g transform="translate(284.832524 140.503703)rotate(-49.090909)scale(0.093168 -0.093168)">
     <use xlink:href="#DejaVuSans-30"/>
    </g>
   </g>
   <g id="flower-shell-FAM17927-i1-1.1">
    <g id="patch_35">
     <path d="M 254.01749 185.142668 &#xA;L 274.7922 161.167374 &#xA;L 261.922203 150.015458 &#xA;L 241.147492 173.990752 &#xA;z&#xA;" style="fill: #ffffff; opacity: 0; stroke: #000000; stroke-linejoin: miter"/>
    </g>
    <!-- 1534 -->
    <g transform="translate(252.148954 178.222553)rotate(-49.090909)scale(0.093168 -0.093168)">
     <defs>
      <path id="DejaVuSans-35" d="M 691 4666 &#xA;L 3169 4666 &#xA;L 3169 4134 &#xA;L 1269 4134 &#xA;L 1269 2991 &#xA;Q 1406 3038 1543 3061 &#xA;Q 1681 3084 1819 3084 &#xA;Q 2600 3084 3056 2656 &#xA;Q 3513 2228 3513 1497 &#xA;Q 3513 744 3044 326 &#xA;Q 2575 -91 1722 -91 &#xA;Q 1428 -91 1123 -41 &#xA;Q 819 9 494 109 &#xA;L 494 744 &#xA;Q 775 591 1075 516 &#xA;Q 1375 441 1709 441 &#xA;Q 2250 441 2565 725 &#xA;Q 2881 1009 2881 1497 &#xA;Q 2881 1984 2565 2268 &#xA;Q 2250 2553 1709 2553 &#xA;Q 1456 2553 1204 2497 &#xA;Q 953 2441 691 2322 &#xA;L 691 4666 &#xA;z&#xA;" transform="scale(0.015625)"/>
      <path id="DejaVuSans-33" d="M 2597 2516 &#xA;Q 3050 2419 3304 2112 &#xA;Q 3559 1806 3559 1356 &#xA;Q 3559 666 3084 287 &#xA;Q 2609 -91 1734 -91 &#xA;Q 1441 -91 1130 -33 &#xA;Q 819 25 488 141 &#xA;L 488 750 &#xA;Q 750 597 1062 519 &#xA;Q 1375 441 1716 441 &#xA;Q 2309 441 2620 675 &#xA;Q 2931 909 2931 1356 &#xA;Q 2931 1769 2642 2001 &#xA;Q 2353 2234 1838 2234 &#xA;L 1294 2234 &#xA;L 1294 2753 &#xA;L 1863 2753 &#xA;Q 2328 2753 2575 2939 &#xA;Q 2822 3125 2822 3475 &#xA;Q 2822 3834 2567 4026 &#xA;Q 2313 4219 1838 4219 &#xA;Q 1578 4219 1281 4162 &#xA;Q 984 4106 628 3988 &#xA;L 628 4550 &#xA;Q 988 4650 1302 4700 &#xA;Q 1616 4750 1894 4750 &#xA;Q 2613 4750 3031 4423 &#xA;Q 3450 4097 3450 3541 &#xA;Q 3450 3153 3228 2886 &#xA;Q 3006 2619 2597 2516 &#xA;z&#xA;" transform="scale(0.015625)"/>
     </defs>
     <use xlink:href="#DejaVuSans-31"/>
     <use xlink:href="#DejaVuSans-35" x="63.623047"/>
     <use xlink:href="#DejaVuSans-33" x="127.246094"/>
     <use xlink:href="#DejaVuSans-34" x="190.869141"/>
    </g>
   </g>
   <g id="flower-genome-FAM17927-i1-1.1" style="cursor: pointer;">
    <g id="patch_36">
     <path d="M 303.415401 128.13444 &#xA;L 360.144507 62.665561 &#xA;L 347.27451 51.513644 &#xA;L 290.545403 116.982523 &#xA;z&#xA;" style="fill: #ffffff; opacity: 0; stroke: #000000; stroke-linejoin: miter"/>
    </g>
    <!-- FAM17927-i1-1.1 -->
    <g transform="translate(301.546865 121.214325)rotate(-49.090909)scale(0.093168 -0.093168)">
     <use xlink:href="#DejaVuSans-46"/>
     <use xlink:href="#DejaVuSans-41" x="48.394531"/>
     <use xlink:href="#DejaVuSans-4d" x="116.802734"/>
     <use xlink:href="#DejaVuSans-31" x="203.082031"/>
     <use xlink:href="#DejaVuSans-37" x="266.705078"/>
     <use xlink:href="#DejaVuSans-39" x="330.328125"/>
     <use xlink:href="#DejaVuSans-32" x="393.951172"/>
     <use xlink:href="#DejaVuSans-37" x="457.574219"/>
     <use xlink:href="#DejaVuSans-2d" x="521.197266"/>
     <use xlink:href="#DejaVuSans-69" x="557.28125"/>
     <use xlink:href="#DejaVuSans-31" x="585.064453"/>
     <use xlink:href="#DejaVuSans-2d" x="648.6875"/>
     <use xlink:href="#DejaVuSans-31" x="684.771484"/>
     <use xlink:href="#DejaVuSans-2e" x="748.394531"/>
     <use xlink:href="#DejaVuSans-31" x="780.181641"/>
    </g>
   </g>
   <g id="flower-unique-FAM19038-p1-1.1" style="cursor: pointer;">
    <g id="patch_37">
     <path d="M 264.512843 130.283447 &#xA;L 270.303866 117.602876 &#xA;L 254.813336 110.528588 &#xA;L 249.022313 123.209159 &#xA;z&#xA;" style="fill: #ffffff; opacity: 0; stroke: #000000; stroke-linejoin: miter"/>
    </g>
    <!-- 5 -->
    <g transform="translate(260.770375 124.170072)rotate(-65.454545)scale(0.093168 -0.093168)">
     <use xlink:href="#DejaVuSans-35"/>
    </g>
   </g>
   <g id="flower-shell-FAM19038-p1-1.1">
    <g id="patch_38">
     <path d="M 243.779816 175.682444 &#xA;L 256.958384 146.825405 &#xA;L 241.467854 139.751117 &#xA;L 228.289286 168.608155 &#xA;z&#xA;" style="fill: #ffffff; opacity: 0; stroke: #000000; stroke-linejoin: miter"/>
    </g>
    <!-- 1414 -->
    <g transform="translate(240.037348 169.569069)rotate(-65.454545)scale(0.093168 -0.093168)">
     <use xlink:href="#DejaVuSans-31"/>
     <use xlink:href="#DejaVuSans-34" x="63.623047"/>
     <use xlink:href="#DejaVuSans-31" x="127.246094"/>
     <use xlink:href="#DejaVuSans-34" x="190.869141"/>
    </g>
   </g>
   <g id="flower-genome-FAM19038-p1-1.1" style="cursor: pointer;">
    <g id="patch_39">
     <path d="M 275.115691 107.066449 &#xA;L 312.483994 25.241279 &#xA;L 296.993464 18.166991 &#xA;L 259.625161 99.992161 &#xA;z&#xA;" style="fill: #ffffff; opacity: 0; stroke: #000000; stroke-linejoin: miter"/>
    </g>
    <!-- FAM19038-p1-1.1 -->
    <g transform="translate(271.373223 100.953075)rotate(-65.454545)scale(0.093168 -0.093168)">
     <defs>
      <path id="DejaVuSans-70" d="M 1159 525 &#xA;L 1159 -1331 &#xA;L 581 -1331 &#xA;L 581 3500 &#xA;L 1159 3500 &#xA;L 1159 2969 &#xA;Q 1341 3281 1617 3432 &#xA;Q 1894 3584 2278 3584 &#xA;Q 2916 3584 3314 3078 &#xA;Q 3713 2572 3713 1747 &#xA;Q 3713 922 3314 415 &#xA;Q 2916 -91 2278 -91 &#xA;Q 1894 -91 1617 61 &#xA;Q 1341 213 1159 525 &#xA;z&#xA;M 3116 1747 &#xA;Q 3116 2381 2855 2742 &#xA;Q 2594 3103 2138 3103 &#xA;Q 1681 3103 1420 2742 &#xA;Q 1159 2381 1159 1747 &#xA;Q 1159 1113 1420 752 &#xA;Q 1681 391 2138 391 &#xA;Q 2594 391 2855 752 &#xA;Q 3116 1113 3116 1747 &#xA;z&#xA;" transform="scale(0.015625)"/>
     </defs>
     <use xlink:href="#DejaVuSans-46"/>
     <use xlink:href="#DejaVuSans-41" x="48.394531"/>
     <use xlink:href="#DejaVuSans-4d" x="116.802734"/>
     <use xlink:href="#DejaVuSans-31" x="203.082031"/>
     <use xlink:href="#DejaVuSans-39" x="266.705078"/>
     <use xlink:href="#DejaVuSans-30" x="330.328125"/>
     <use xlink:href="#DejaVuSans-33" x="393.951172"/>
     <use xlink:href="#DejaVuSans-38" x="457.574219"/>
     <use xlink:href="#DejaVuSans-2d" x="521.197266"/>
     <use xlink:href="#DejaVuSans-70" x="557.28125"/>
     <use xlink:href="#DejaVuSans-31" x="620.757812"/>
     <use xlink:href="#DejaVuSans-2d" x="684.380859"/>
     <use xlink:href="#DejaVuSans-31" x="720.464844"/>
     <use xlink:href="#DejaVuSans-2e" x="784.087891"/>
     <use xlink:href="#DejaVuSans-31" x="815.875"/>
    </g>
   </g>
   <g id="flower-unique-FAM24235-i1-1.1" style="cursor: pointer;">
    <g id="patch_40">
     <path d="M 237.972596 123.022277 &#xA;L 240.800132 103.356332 &#xA;L 223.944019 100.932789 &#xA;L 221.116484 120.598734 &#xA;z&#xA;" style="fill: #ffffff; opacity: 0; stroke: #000000; stroke-linejoin: miter"/>
    </g>
    <!-- 20 -->
    <g transform="translate(232.659387 118.210912)rotate(-81.818182)scale(0.093168 -0.093168)">
     <use xlink:href="#DejaVuSans-32"/>
     <use xlink:href="#DejaVuSans-30" x="63.623047"/>
    </g>
   </g>
   <g id="flower-shell-FAM24235-i1-1.1">
    <g id="patch_41">
     <path d="M 231.291587 169.489711 &#xA;L 235.806363 138.088753 &#xA;L 218.950251 135.66521 &#xA;L 214.435475 167.066168 &#xA;z&#xA;" style="fill: #ffffff; opacity: 0; stroke: #000000; stroke-linejoin: miter"/>
    </g>
    <!-- 1314 -->
    <g transform="translate(225.978379 164.678346)rotate(-81.818182)scale(0.093168 -0.093168)">
     <use xlink:href="#DejaVuSans-31"/>
     <use xlink:href="#DejaVuSans-33" x="63.623047"/>
     <use xlink:href="#DejaVuSans-31" x="127.246094"/>
     <use xlink:href="#DejaVuSans-34" x="190.869141"/>
    </g>
   </g>
   <g id="flower-genome-FAM24235-i1-1.1" style="cursor: pointer;">
    <g id="patch_42">
     <path d="M 242.026779 94.82481 &#xA;L 254.355192 9.078814 &#xA;L 237.49908 6.655271 &#xA;L 225.170667 92.401267 &#xA;z&#xA;" style="fill: #ffffff; opacity: 0; stroke: #000000; stroke-linejoin: miter"/>
    </g>
    <!-- FAM24235-i1-1.1 -->
    <g transform="translate(236.713571 90.013445)rotate(-81.818182)scale(0.093168 -0.093168)">
     <use xlink:href="#DejaVuSans-46"/>
     <use xlink:href="#DejaVuSans-41" x="48.394531"/>
     <use xlink:href="#DejaVuSans-4d" x="116.802734"/>
     <use xlink:href="#DejaVuSans-32" x="203.082031"/>
     <use xlink:href="#DejaVuSans-34" x="266.705078"/>
     <use xlink:href="#DejaVuSans-32" x="330.328125"/>
     <use xlink:href="#DejaVuSans-33" x="393.951172"/>
     <use xlink:href="#DejaVuSans-35" x="457.574219"/>
     <use xlink:href="#DejaVuSans-2d" x="521.197266"/>
     <use xlink:href="#DejaVuSans-69" x="557.28125"/>
     <use xlink:href="#DejaVuSans-31" x="585.064453"/>
     <use xlink:href="#DejaVuSans-2d" x="648.6875"/>
     <use xlink:href="#DejaVuSans-31" x="684.771484"/>
     <use xlink:href="#DejaVuSans-2e" x="748.394531"/>
     <use xlink:href="#DejaVuSans-31" x="780.181641"/>
    </g>
   </g>
   <g id="flower-unique-FAM18356-i1-1.1" style="cursor: pointer;">
    <g id="patch_43">
     <path d="M 191.621678 106.290085 &#xA;L 193.605594 120.088524 &#xA;L 210.461706 117.664981 &#xA;L 208.477791 103.866542 &#xA;z&#xA;" style="fill: #ffffff; opacity: 0; stroke: #000000; stroke-linejoin: miter"/>
    </g>
    <!-- 3 -->
    <g transform="translate(198.075183 109.409652)rotate(-278.181818)scale(0.093168 -0.093168)">
     <use xlink:href="#DejaVuSans-33"/>
    </g>
   </g>
   <g id="flower-shell-FAM18356-i1-1.1">
    <g id="patch_44">
     <path d="M 196.615447 141.022507 &#xA;L 200.286603 166.555957 &#xA;L 217.142715 164.132414 &#xA;L 213.471559 138.598964 &#xA;z&#xA;" style="fill: #ffffff; opacity: 0; stroke: #000000; stroke-linejoin: miter"/>
    </g>
    <!-- 951 -->
    <g transform="translate(203.068951 144.142074)rotate(-278.181818)scale(0.093168 -0.093168)">
     <use xlink:href="#DejaVuSans-39"/>
     <use xlink:href="#DejaVuSans-35" x="63.623047"/>
     <use xlink:href="#DejaVuSans-31" x="127.246094"/>
    </g>
   </g>
   <g id="flower-genome-FAM18356-i1-1.1" style="cursor: pointer;">
    <g id="patch_45">
     <path d="M 177.644808 9.078814 &#xA;L 189.973221 94.82481 &#xA;L 206.829333 92.401267 &#xA;L 194.50092 6.655271 &#xA;z&#xA;" style="fill: #ffffff; opacity: 0; stroke: #000000; stroke-linejoin: miter"/>
    </g>
    <!-- FAM18356-i1-1.1 -->
    <g transform="translate(184.098312 12.198381)rotate(-278.181818)scale(0.093168 -0.093168)">
     <defs>
      <path id="DejaVuSans-36" d="M 2113 2584 &#xA;Q 1688 2584 1439 2293 &#xA;Q 1191 2003 1191 1497 &#xA;Q 1191 994 1439 701 &#xA;Q 1688 409 2113 409 &#xA;Q 2538 409 2786 701 &#xA;Q 3034 994 3034 1497 &#xA;Q 3034 2003 2786 2293 &#xA;Q 2538 2584 2113 2584 &#xA;z&#xA;M 3366 4563 &#xA;L 3366 3988 &#xA;Q 3128 4100 2886 4159 &#xA;Q 2644 4219 2406 4219 &#xA;Q 1781 4219 1451 3797 &#xA;Q 1122 3375 1075 2522 &#xA;Q 1259 2794 1537 2939 &#xA;Q 1816 3084 2150 3084 &#xA;Q 2853 3084 3261 2657 &#xA;Q 3669 2231 3669 1497 &#xA;Q 3669 778 3244 343 &#xA;Q 2819 -91 2113 -91 &#xA;Q 1303 -91 875 529 &#xA;Q 447 1150 447 2328 &#xA;Q 447 3434 972 4092 &#xA;Q 1497 4750 2381 4750 &#xA;Q 2619 4750 2861 4703 &#xA;Q 3103 4656 3366 4563 &#xA;z&#xA;" transform="scale(0.015625)"/>
     </defs>
     <use xlink:href="#DejaVuSans-46"/>
     <use xlink:href="#DejaVuSans-41" x="48.394531"/>
     <use xlink:href="#DejaVuSans-4d" x="116.802734"/>
     <use xlink:href="#DejaVuSans-31" x="203.082031"/>
     <use xlink:href="#DejaVuSans-38" x="266.705078"/>
     <use xlink:href="#DejaVuSans-33" x="330.328125"/>
     <use xlink:href="#DejaVuSans-35" x="393.951172"/>
     <use xlink:href="#DejaVuSans-36" x="457.574219"/>
     <use xlink:href="#DejaVuSans-2d" x="521.197266"/>
     <use xlink:href="#DejaVuSans-69" x="557.28125"/>
     <use xlink:href="#DejaVuSans-31" x="585.064453"/>
     <use xlink:href="#DejaVuSans-2d" x="648.6875"/>
     <use xlink:href="#DejaVuSans-31" x="684.771484"/>
     <use xlink:href="#DejaVuSans-2e" x="748.394531"/>
     <use xlink:href="#DejaVuSans-31" x="780.181641"/>
    </g>
   </g>
   <g id="flower-unique-FAM14217-p1-1.1" style="cursor: pointer;">
    <g id="patch_46">
     <path d="M 160.464876 114.906798 &#xA;L 168.718414 132.979525 &#xA;L 184.208944 125.905237 &#xA;L 175.955407 107.83251 &#xA;z&#xA;" style="fill: #ffffff; opacity: 0; stroke: #000000; stroke-linejoin: miter"/>
    </g>
    <!-- 28 -->
    <g transform="translate(167.535852 116.081838)rotate(-294.545455)scale(0.093168 -0.093168)">
     <use xlink:href="#DejaVuSans-32"/>
     <use xlink:href="#DejaVuSans-38" x="63.623047"/>
    </g>
   </g>
   <g id="flower-shell-FAM14217-p1-1.1">
    <g id="patch_47">
     <path d="M 175.041616 146.825405 &#xA;L 188.220184 175.682444 &#xA;L 203.710714 168.608155 &#xA;L 190.532146 139.751117 &#xA;z&#xA;" style="fill: #ffffff; opacity: 0; stroke: #000000; stroke-linejoin: miter"/>
    </g>
    <!-- 1300 -->
    <g transform="translate(182.112592 148.000445)rotate(-294.545455)scale(0.093168 -0.093168)">
     <use xlink:href="#DejaVuSans-31"/>
     <use xlink:href="#DejaVuSans-33" x="63.623047"/>
     <use xlink:href="#DejaVuSans-30" x="127.246094"/>
     <use xlink:href="#DejaVuSans-30" x="190.869141"/>
    </g>
   </g>
   <g id="flower-genome-FAM14217-p1-1.1" style="cursor: pointer;">
    <g id="patch_48">
     <path d="M 119.516006 25.241279 &#xA;L 156.884309 107.066449 &#xA;L 172.374839 99.992161 &#xA;L 135.006536 18.166991 &#xA;z&#xA;" style="fill: #ffffff; opacity: 0; stroke: #000000; stroke-linejoin: miter"/>
    </g>
    <!-- FAM14217-p1-1.1 -->
    <g transform="translate(126.586982 26.416319)rotate(-294.545455)scale(0.093168 -0.093168)">
     <use xlink:href="#DejaVuSans-46"/>
     <use xlink:href="#DejaVuSans-41" x="48.394531"/>
     <use xlink:href="#DejaVuSans-4d" x="116.802734"/>
     <use xlink:href="#DejaVuSans-31" x="203.082031"/>
     <use xlink:href="#DejaVuSans-34" x="266.705078"/>
     <use xlink:href="#DejaVuSans-32" x="330.328125"/>
     <use xlink:href="#DejaVuSans-31" x="393.951172"/>
     <use xlink:href="#DejaVuSans-37" x="457.574219"/>
     <use xlink:href="#DejaVuSans-2d" x="521.197266"/>
     <use xlink:href="#DejaVuSans-70" x="557.28125"/>
     <use xlink:href="#DejaVuSans-31" x="620.757812"/>
     <use xlink:href="#DejaVuSans-2d" x="684.380859"/>
     <use xlink:href="#DejaVuSans-31" x="720.464844"/>
     <use xlink:href="#DejaVuSans-2e" x="784.087891"/>
     <use xlink:href="#DejaVuSans-31" x="815.875"/>
    </g>
   </g>
   <g id="flower-unique-FAM20833-i1-1.1" style="cursor: pointer;">
    <g id="patch_49">
     <path d="M 134.22901 134.648437 &#xA;L 147.239897 149.663801 &#xA;L 160.109895 138.511884 &#xA;L 147.099008 123.496521 &#xA;z&#xA;" style="fill: #ffffff; opacity: 0; stroke: #000000; stroke-linejoin: miter"/>
    </g>
    <!-- 25 -->
    <g transform="translate(141.344609 133.783756)rotate(-310.909091)scale(0.093168 -0.093168)">
     <use xlink:href="#DejaVuSans-32"/>
     <use xlink:href="#DejaVuSans-35" x="63.623047"/>
    </g>
   </g>
   <g id="flower-shell-FAM20833-i1-1.1">
    <g id="patch_50">
     <path d="M 157.2078 161.167374 &#xA;L 177.98251 185.142668 &#xA;L 190.852508 173.990752 &#xA;L 170.077797 150.015458 &#xA;z&#xA;" style="fill: #ffffff; opacity: 0; stroke: #000000; stroke-linejoin: miter"/>
    </g>
    <!-- 1251 -->
    <g transform="translate(164.323399 160.302693)rotate(-310.909091)scale(0.093168 -0.093168)">
     <use xlink:href="#DejaVuSans-31"/>
     <use xlink:href="#DejaVuSans-32" x="63.623047"/>
     <use xlink:href="#DejaVuSans-35" x="127.246094"/>
     <use xlink:href="#DejaVuSans-31" x="190.869141"/>
    </g>
   </g>
   <g id="flower-genome-FAM20833-i1-1.1" style="cursor: pointer;">
    <g id="patch_51">
     <path d="M 71.855493 62.665561 &#xA;L 128.584599 128.13444 &#xA;L 141.454597 116.982523 &#xA;L 84.72549 51.513644 &#xA;z&#xA;" style="fill: #ffffff; opacity: 0; stroke: #000000; stroke-linejoin: miter"/>
    </g>
    <!-- FAM20833-i1-1.1 -->
    <g transform="translate(78.971091 61.800879)rotate(-310.909091)scale(0.093168 -0.093168)">
     <use xlink:href="#DejaVuSans-46"/>
     <use xlink:href="#DejaVuSans-41" x="48.394531"/>
     <use xlink:href="#DejaVuSans-4d" x="116.802734"/>
     <use xlink:href="#DejaVuSans-32" x="203.082031"/>
     <use xlink:href="#DejaVuSans-30" x="266.705078"/>
     <use xlink:href="#DejaVuSans-38" x="330.328125"/>
     <use xlink:href="#DejaVuSans-33" x="393.951172"/>
     <use xlink:href="#DejaVuSans-33" x="457.574219"/>
     <use xlink:href="#DejaVuSans-2d" x="521.197266"/>
     <use xlink:href="#DejaVuSans-69" x="557.28125"/>
     <use xlink:href="#DejaVuSans-31" x="585.064453"/>
     <use xlink:href="#DejaVuSans-2d" x="648.6875"/>
     <use xlink:href="#DejaVuSans-31" x="684.771484"/>
     <use xlink:href="#DejaVuSans-2e" x="748.394531"/>
     <use xlink:href="#DejaVuSans-31" x="780.181641"/>
    </g>
   </g>
   <g id="flower-unique-FAM19036-p1-1.1" style="cursor: pointer;">
    <g id="patch_52">
     <path d="M 114.617743 160.981898 &#xA;L 131.331914 171.723444 &#xA;L 140.538729 157.397361 &#xA;L 123.824557 146.655816 &#xA;z&#xA;" style="fill: #ffffff; opacity: 0; stroke: #000000; stroke-linejoin: miter"/>
    </g>
    <!-- 13 -->
    <g transform="translate(121.201501 158.147547)rotate(-327.272727)scale(0.093168 -0.093168)">
     <use xlink:href="#DejaVuSans-31"/>
     <use xlink:href="#DejaVuSans-33" x="63.623047"/>
    </g>
   </g>
   <g id="flower-shell-FAM19036-p1-1.1">
    <g id="patch_53">
     <path d="M 144.136978 179.952759 &#xA;L 170.824788 197.103973 &#xA;L 180.031602 182.77789 &#xA;L 153.343792 165.626676 &#xA;z&#xA;" style="fill: #ffffff; opacity: 0; stroke: #000000; stroke-linejoin: miter"/>
    </g>
    <!-- 1595 -->
    <g transform="translate(150.720736 177.118408)rotate(-327.272727)scale(0.093168 -0.093168)">
     <use xlink:href="#DejaVuSans-31"/>
     <use xlink:href="#DejaVuSans-35" x="63.623047"/>
     <use xlink:href="#DejaVuSans-39" x="127.246094"/>
     <use xlink:href="#DejaVuSans-35" x="190.869141"/>
    </g>
   </g>
   <g id="flower-genome-FAM19036-p1-1.1" style="cursor: pointer;">
    <g id="patch_54">
     <path d="M 31.692521 107.689094 &#xA;L 107.366765 156.321978 &#xA;L 116.57358 141.995895 &#xA;L 40.899336 93.363012 &#xA;z&#xA;" style="fill: #ffffff; opacity: 0; stroke: #000000; stroke-linejoin: miter"/>
    </g>
    <!-- FAM19036-p1-1.1 -->
    <g transform="translate(38.276279 104.854743)rotate(-327.272727)scale(0.093168 -0.093168)">
     <use xlink:href="#DejaVuSans-46"/>
     <use xlink:href="#DejaVuSans-41" x="48.394531"/>
     <use xlink:href="#DejaVuSans-4d" x="116.802734"/>
     <use xlink:href="#DejaVuSans-31" x="203.082031"/>
     <use xlink:href="#DejaVuSans-39" x="266.705078"/>
     <use xlink:href="#DejaVuSans-30" x="330.328125"/>
     <use xlink:href="#DejaVuSans-33" x="393.951172"/>
     <use xlink:href="#DejaVuSans-36" x="457.574219"/>
     <use xlink:href="#DejaVuSans-2d" x="521.197266"/>
     <use xlink:href="#DejaVuSans-70" x="557.28125"/>
     <use xlink:href="#DejaVuSans-31" x="620.757812"/>
     <use xlink:href="#DejaVuSans-2d" x="684.380859"/>
     <use xlink:href="#DejaVuSans-31" x="720.464844"/>
     <use xlink:href="#DejaVuSans-2e" x="784.087891"/>
     <use xlink:href="#DejaVuSans-31" x="815.875"/>
    </g>
   </g>
   <g id="flower-unique-FAM23169-i1-1.1" style="cursor: pointer;">
    <g id="patch_55">
     <path d="M 106.063725 192.608835 &#xA;L 119.439374 196.53628 &#xA;L 124.237124 180.196645 &#xA;L 110.861475 176.2692 &#xA;z&#xA;" style="fill: #ffffff; opacity: 0; stroke: #000000; stroke-linejoin: miter"/>
    </g>
    <!-- 7 -->
    <g transform="translate(111.582266 188.034436)rotate(-343.636364)scale(0.093168 -0.093168)">
     <use xlink:href="#DejaVuSans-37"/>
    </g>
   </g>
   <g id="flower-shell-FAM23169-i1-1.1">
    <g id="patch_56">
     <path d="M 136.888071 201.65968 &#xA;L 167.326892 210.597324 &#xA;L 172.124642 194.257689 &#xA;L 141.685821 185.320045 &#xA;z&#xA;" style="fill: #ffffff; opacity: 0; stroke: #000000; stroke-linejoin: miter"/>
    </g>
    <!-- 1564 -->
    <g transform="translate(142.406612 197.085281)rotate(-343.636364)scale(0.093168 -0.093168)">
     <use xlink:href="#DejaVuSans-31"/>
     <use xlink:href="#DejaVuSans-35" x="63.623047"/>
     <use xlink:href="#DejaVuSans-36" x="127.246094"/>
     <use xlink:href="#DejaVuSans-34" x="190.869141"/>
    </g>
   </g>
   <g id="flower-genome-FAM23169-i1-1.1" style="cursor: pointer;">
    <g id="patch_57">
     <path d="M 11.83104 164.939622 &#xA;L 94.94975 189.345478 &#xA;L 99.7475 173.005843 &#xA;L 16.62879 148.599987 &#xA;z&#xA;" style="fill: #ffffff; opacity: 0; stroke: #000000; stroke-linejoin: miter"/>
    </g>
    <!-- FAM23169-i1-1.1 -->
    <g transform="translate(17.349581 160.365223)rotate(-343.636364)scale(0.093168 -0.093168)">
     <use xlink:href="#DejaVuSans-46"/>
     <use xlink:href="#DejaVuSans-41" x="48.394531"/>
     <use xlink:href="#DejaVuSans-4d" x="116.802734"/>
     <use xlink:href="#DejaVuSans-32" x="203.082031"/>
     <use xlink:href="#DejaVuSans-33" x="266.705078"/>
     <use xlink:href="#DejaVuSans-31" x="330.328125"/>
     <use xlink:href="#DejaVuSans-36" x="393.951172"/>
     <use xlink:href="#DejaVuSans-39" x="457.574219"/>
     <use xlink:href="#DejaVuSans-2d" x="521.197266"/>
     <use xlink:href="#DejaVuSans-69" x="557.28125"/>
     <use xlink:href="#DejaVuSans-31" x="585.064453"/>
     <use xlink:href="#DejaVuSans-2d" x="648.6875"/>
     <use xlink:href="#DejaVuSans-31" x="684.771484"/>
     <use xlink:href="#DejaVuSans-2e" x="748.394531"/>
     <use xlink:href="#DejaVuSans-31" x="780.181641"/>
    </g>
   </g>
   <g id="flower-unique-FAM18815-i1-1.1" style="cursor: pointer;">
    <g id="patch_58">
     <path d="M 100.958759 224.529571 &#xA;L 120.826933 224.529571 &#xA;L 120.826933 207.500124 &#xA;L 100.958759 207.500124 &#xA;z&#xA;" style="fill: #ffffff; opacity: 0; stroke: #000000; stroke-linejoin: miter"/>
    </g>
    <!-- 51 -->
    <g transform="translate(104.965003 218.585714)scale(0.093168 -0.093168)">
     <use xlink:href="#DejaVuSans-35"/>
     <use xlink:href="#DejaVuSans-31" x="63.623047"/>
    </g>
   </g>
   <g id="flower-shell-FAM18815-i1-1.1">
    <g id="patch_59">
     <path d="M 136.048342 224.529571 &#xA;L 167.772202 224.529571 &#xA;L 167.772202 207.500124 &#xA;L 136.048342 207.500124 &#xA;z&#xA;" style="fill: #ffffff; opacity: 0; stroke: #000000; stroke-linejoin: miter"/>
    </g>
    <!-- 1219 -->
    <g transform="translate(140.054586 218.585714)scale(0.093168 -0.093168)">
     <use xlink:href="#DejaVuSans-31"/>
     <use xlink:href="#DejaVuSans-32" x="63.623047"/>
     <use xlink:href="#DejaVuSans-31" x="127.246094"/>
     <use xlink:href="#DejaVuSans-39" x="190.869141"/>
    </g>
   </g>
   <g id="flower-genome-FAM18815-i1-1.1" style="cursor: pointer;">
    <g id="patch_60">
     <path d="M 5.711764 224.529571 &#xA;L 92.339506 224.529571 &#xA;L 92.339506 207.500124 &#xA;L 5.711764 207.500124 &#xA;z&#xA;" style="fill: #ffffff; opacity: 0; stroke: #000000; stroke-linejoin: miter"/>
    </g>
    <!-- FAM18815-i1-1.1 -->
    <g transform="translate(9.718008 218.585714)scale(0.093168 -0.093168)">
     <use xlink:href="#DejaVuSans-46"/>
     <use xlink:href="#DejaVuSans-41" x="48.394531"/>
     <use xlink:href="#DejaVuSans-4d" x="116.802734"/>
     <use xlink:href="#DejaVuSans-31" x="203.082031"/>
     <use xlink:href="#DejaVuSans-38" x="266.705078"/>
     <use xlink:href="#DejaVuSans-38" x="330.328125"/>
     <use xlink:href="#DejaVuSans-31" x="393.951172"/>
     <use xlink:href="#DejaVuSans-35" x="457.574219"/>
     <use xlink:href="#DejaVuSans-2d" x="521.197266"/>
     <use xlink:href="#DejaVuSans-69" x="557.28125"/>
     <use xlink:href="#DejaVuSans-31" x="585.064453"/>
     <use xlink:href="#DejaVuSans-2d" x="648.6875"/>
     <use xlink:href="#DejaVuSans-31" x="684.771484"/>
     <use xlink:href="#DejaVuSans-2e" x="748.394531"/>
     <use xlink:href="#DejaVuSans-31" x="780.181641"/>
    </g>
   </g>
   <g id="flower-unique-FAM13496-i1-1.1" style="cursor: pointer;">
    <g id="patch_61">
     <path d="M 108.017613 256.595528 &#xA;L 127.080986 250.998016 &#xA;L 122.283236 234.658381 &#xA;L 103.219863 240.255893 &#xA;z&#xA;" style="fill: #ffffff; opacity: 0; stroke: #000000; stroke-linejoin: miter"/>
    </g>
    <!-- 11 -->
    <g transform="translate(110.186998 249.76375)rotate(-16.363636)scale(0.093168 -0.093168)">
     <use xlink:href="#DejaVuSans-31"/>
     <use xlink:href="#DejaVuSans-31" x="63.623047"/>
    </g>
   </g>
   <g id="flower-shell-FAM13496-i1-1.1">
    <g id="patch_62">
     <path d="M 144.529683 245.874617 &#xA;L 169.28078 238.607039 &#xA;L 164.48303 222.267404 &#xA;L 139.731933 229.534982 &#xA;z&#xA;" style="fill: #ffffff; opacity: 0; stroke: #000000; stroke-linejoin: miter"/>
    </g>
    <!-- 967 -->
    <g transform="translate(146.699068 239.042839)rotate(-16.363636)scale(0.093168 -0.093168)">
     <use xlink:href="#DejaVuSans-39"/>
     <use xlink:href="#DejaVuSans-36" x="63.623047"/>
     <use xlink:href="#DejaVuSans-37" x="127.246094"/>
    </g>
   </g>
   <g id="flower-genome-FAM13496-i1-1.1" style="cursor: pointer;">
    <g id="patch_63">
     <path d="M 16.62879 283.429707 &#xA;L 99.7475 259.023852 &#xA;L 94.94975 242.684217 &#xA;L 11.83104 267.090072 &#xA;z&#xA;" style="fill: #ffffff; opacity: 0; stroke: #000000; stroke-linejoin: miter"/>
    </g>
    <!-- FAM13496-i1-1.1 -->
    <g transform="translate(18.798175 276.597929)rotate(-16.363636)scale(0.093168 -0.093168)">
     <use xlink:href="#DejaVuSans-46"/>
     <use xlink:href="#DejaVuSans-41" x="48.394531"/>
     <use xlink:href="#DejaVuSans-4d" x="116.802734"/>
     <use xlink:href="#DejaVuSans-31" x="203.082031"/>
     <use xlink:href="#DejaVuSans-33" x="266.705078"/>
     <use xlink:href="#DejaVuSans-34" x="330.328125"/>
     <use xlink:href="#DejaVuSans-39" x="393.951172"/>
     <use xlink:href="#DejaVuSans-36" x="457.574219"/>
     <use xlink:href="#DejaVuSans-2d" x="521.197266"/>
     <use xlink:href="#DejaVuSans-69" x="557.28125"/>
     <use xlink:href="#DejaVuSans-31" x="585.064453"/>
     <use xlink:href="#DejaVuSans-2d" x="648.6875"/>
     <use xlink:href="#DejaVuSans-31" x="684.771484"/>
     <use xlink:href="#DejaVuSans-2e" x="748.394531"/>
     <use xlink:href="#DejaVuSans-31" x="780.181641"/>
    </g>
   </g>
   <g id="flower-unique-FAM20446-i1-1.1" style="cursor: pointer;">
    <g id="patch_64">
     <path d="M 126.317967 283.771462 &#xA;L 138.045319 276.23475 &#xA;L 128.838505 261.908667 &#xA;L 117.111152 269.445379 &#xA;z&#xA;" style="fill: #ffffff; opacity: 0; stroke: #000000; stroke-linejoin: miter"/>
    </g>
    <!-- 5 -->
    <g transform="translate(126.474742 276.605233)rotate(-32.727273)scale(0.093168 -0.093168)">
     <use xlink:href="#DejaVuSans-35"/>
    </g>
   </g>
   <g id="flower-shell-FAM20446-i1-1.1">
    <g id="patch_65">
     <path d="M 153.343792 266.403018 &#xA;L 180.031602 249.251805 &#xA;L 170.824788 234.925722 &#xA;L 144.136978 252.076936 &#xA;z&#xA;" style="fill: #ffffff; opacity: 0; stroke: #000000; stroke-linejoin: miter"/>
    </g>
    <!-- 1664 -->
    <g transform="translate(153.500568 259.236789)rotate(-32.727273)scale(0.093168 -0.093168)">
     <use xlink:href="#DejaVuSans-31"/>
     <use xlink:href="#DejaVuSans-36" x="63.623047"/>
     <use xlink:href="#DejaVuSans-36" x="127.246094"/>
     <use xlink:href="#DejaVuSans-34" x="190.869141"/>
    </g>
   </g>
   <g id="flower-genome-FAM20446-i1-1.1" style="cursor: pointer;">
    <g id="patch_66">
     <path d="M 43.697686 336.868293 &#xA;L 116.57358 290.033799 &#xA;L 107.366765 275.707717 &#xA;L 34.490871 322.54221 &#xA;z&#xA;" style="fill: #ffffff; opacity: 0; stroke: #000000; stroke-linejoin: miter"/>
    </g>
    <!-- FAM20446-i1-1.1 -->
    <g transform="translate(43.854461 329.702063)rotate(-32.727273)scale(0.093168 -0.093168)">
     <use xlink:href="#DejaVuSans-46"/>
     <use xlink:href="#DejaVuSans-41" x="48.394531"/>
     <use xlink:href="#DejaVuSans-4d" x="116.802734"/>
     <use xlink:href="#DejaVuSans-32" x="203.082031"/>
     <use xlink:href="#DejaVuSans-30" x="266.705078"/>
     <use xlink:href="#DejaVuSans-34" x="330.328125"/>
     <use xlink:href="#DejaVuSans-34" x="393.951172"/>
     <use xlink:href="#DejaVuSans-36" x="457.574219"/>
     <use xlink:href="#DejaVuSans-2d" x="521.197266"/>
     <use xlink:href="#DejaVuSans-69" x="557.28125"/>
     <use xlink:href="#DejaVuSans-31" x="585.064453"/>
     <use xlink:href="#DejaVuSans-2d" x="648.6875"/>
     <use xlink:href="#DejaVuSans-31" x="684.771484"/>
     <use xlink:href="#DejaVuSans-2e" x="748.394531"/>
     <use xlink:href="#DejaVuSans-31" x="780.181641"/>
    </g>
   </g>
   <g id="flower-unique-FAM1079-i1-1.1" style="cursor: pointer;">
    <g id="patch_67">
     <path d="M 147.099008 308.533174 &#xA;L 160.109895 293.51781 &#xA;L 147.239897 282.365894 &#xA;L 134.22901 297.381258 &#xA;z&#xA;" style="fill: #ffffff; opacity: 0; stroke: #000000; stroke-linejoin: miter"/>
    </g>
    <!-- 14 -->
    <g transform="translate(145.230472 301.613059)rotate(-49.090909)scale(0.093168 -0.093168)">
     <use xlink:href="#DejaVuSans-31"/>
     <use xlink:href="#DejaVuSans-34" x="63.623047"/>
    </g>
   </g>
   <g id="flower-shell-FAM1079-i1-1.1">
    <g id="patch_68">
     <path d="M 170.077797 282.014237 &#xA;L 190.852508 258.038943 &#xA;L 177.98251 246.887027 &#xA;L 157.2078 270.862321 &#xA;z&#xA;" style="fill: #ffffff; opacity: 0; stroke: #000000; stroke-linejoin: miter"/>
    </g>
    <!-- 1673 -->
    <g transform="translate(168.209262 275.094122)rotate(-49.090909)scale(0.093168 -0.093168)">
     <use xlink:href="#DejaVuSans-31"/>
     <use xlink:href="#DejaVuSans-36" x="63.623047"/>
     <use xlink:href="#DejaVuSans-37" x="127.246094"/>
     <use xlink:href="#DejaVuSans-33" x="190.869141"/>
    </g>
   </g>
   <g id="flower-genome-FAM1079-i1-1.1" style="cursor: pointer;">
    <g id="patch_69">
     <path d="M 88.607402 376.036085 &#xA;L 141.454597 315.047171 &#xA;L 128.584599 303.895255 &#xA;L 75.737404 364.884169 &#xA;z&#xA;" style="fill: #ffffff; opacity: 0; stroke: #000000; stroke-linejoin: miter"/>
    </g>
    <!-- FAM1079-i1-1.1 -->
    <g transform="translate(86.738867 369.11597)rotate(-49.090909)scale(0.093168 -0.093168)">
     <use xlink:href="#DejaVuSans-46"/>
     <use xlink:href="#DejaVuSans-41" x="48.394531"/>
     <use xlink:href="#DejaVuSans-4d" x="116.802734"/>
     <use xlink:href="#DejaVuSans-31" x="203.082031"/>
     <use xlink:href="#DejaVuSans-30" x="266.705078"/>
     <use xlink:href="#DejaVuSans-37" x="330.328125"/>
     <use xlink:href="#DejaVuSans-39" x="393.951172"/>
     <use xlink:href="#DejaVuSans-2d" x="457.574219"/>
     <use xlink:href="#DejaVuSans-69" x="493.658203"/>
     <use xlink:href="#DejaVuSans-31" x="521.441406"/>
     <use xlink:href="#DejaVuSans-2d" x="585.064453"/>
     <use xlink:href="#DejaVuSans-31" x="621.148438"/>
     <use xlink:href="#DejaVuSans-2e" x="684.771484"/>
     <use xlink:href="#DejaVuSans-31" x="716.558594"/>
    </g>
   </g>
   <g id="flower-unique-FAM20558-i1-1.1" style="cursor: pointer;">
    <g id="patch_70">
     <path d="M 177.186664 321.501107 &#xA;L 182.977687 308.820536 &#xA;L 167.487157 301.746248 &#xA;L 161.696134 314.426819 &#xA;z&#xA;" style="fill: #ffffff; opacity: 0; stroke: #000000; stroke-linejoin: miter"/>
    </g>
    <!-- 1 -->
    <g transform="translate(173.444196 315.387732)rotate(-65.454545)scale(0.093168 -0.093168)">
     <use xlink:href="#DejaVuSans-31"/>
    </g>
   </g>
   <g id="flower-shell-FAM20558-i1-1.1">
    <g id="patch_71">
     <path d="M 190.532146 292.278578 &#xA;L 203.710714 263.421539 &#xA;L 188.220184 256.347251 &#xA;L 175.041616 285.204289 &#xA;z&#xA;" style="fill: #ffffff; opacity: 0; stroke: #000000; stroke-linejoin: miter"/>
    </g>
    <!-- 1765 -->
    <g transform="translate(186.789678 286.165203)rotate(-65.454545)scale(0.093168 -0.093168)">
     <use xlink:href="#DejaVuSans-31"/>
     <use xlink:href="#DejaVuSans-37" x="63.623047"/>
     <use xlink:href="#DejaVuSans-36" x="127.246094"/>
     <use xlink:href="#DejaVuSans-35" x="190.869141"/>
    </g>
   </g>
   <g id="flower-genome-FAM20558-i1-1.1" style="cursor: pointer;">
    <g id="patch_72">
     <path d="M 136.388375 410.836899 &#xA;L 172.374839 332.037533 &#xA;L 156.884309 324.963245 &#xA;L 120.897845 403.762611 &#xA;z&#xA;" style="fill: #ffffff; opacity: 0; stroke: #000000; stroke-linejoin: miter"/>
    </g>
    <!-- FAM20558-i1-1.1 -->
    <g transform="translate(132.645907 404.723524)rotate(-65.454545)scale(0.093168 -0.093168)">
     <use xlink:href="#DejaVuSans-46"/>
     <use xlink:href="#DejaVuSans-41" x="48.394531"/>
     <use xlink:href="#DejaVuSans-4d" x="116.802734"/>
     <use xlink:href="#DejaVuSans-32" x="203.082031"/>
     <use xlink:href="#DejaVuSans-30" x="266.705078"/>
     <use xlink:href="#DejaVuSans-35" x="330.328125"/>
     <use xlink:href="#DejaVuSans-35" x="393.951172"/>
     <use xlink:href="#DejaVuSans-38" x="457.574219"/>
     <use xlink:href="#DejaVuSans-2d" x="521.197266"/>
     <use xlink:href="#DejaVuSans-69" x="557.28125"/>
     <use xlink:href="#DejaVuSans-31" x="585.064453"/>
     <use xlink:href="#DejaVuSans-2d" x="648.6875"/>
     <use xlink:href="#DejaVuSans-31" x="684.771484"/>
     <use xlink:href="#DejaVuSans-2e" x="748.394531"/>
     <use xlink:href="#DejaVuSans-31" x="780.181641"/>
    </g>
   </g>
   <g id="flower-unique-FAM21789-i1-1.1" style="cursor: pointer;">
    <g id="patch_73">
     <path d="M 208.055981 331.096905 &#xA;L 210.883516 311.430961 &#xA;L 194.027404 309.007418 &#xA;L 191.199868 328.673362 &#xA;z&#xA;" style="fill: #ffffff; opacity: 0; stroke: #000000; stroke-linejoin: miter"/>
    </g>
    <!-- 15 -->
    <g transform="translate(202.742772 326.285541)rotate(-81.818182)scale(0.093168 -0.093168)">
     <use xlink:href="#DejaVuSans-31"/>
     <use xlink:href="#DejaVuSans-35" x="63.623047"/>
    </g>
   </g>
   <g id="flower-shell-FAM21789-i1-1.1">
    <g id="patch_74">
     <path d="M 213.049749 296.364484 &#xA;L 217.564525 264.963527 &#xA;L 200.708413 262.539984 &#xA;L 196.193637 293.940941 &#xA;z&#xA;" style="fill: #ffffff; opacity: 0; stroke: #000000; stroke-linejoin: miter"/>
    </g>
    <!-- 1631 -->
    <g transform="translate(207.73654 291.553119)rotate(-81.818182)scale(0.093168 -0.093168)">
     <use xlink:href="#DejaVuSans-31"/>
     <use xlink:href="#DejaVuSans-36" x="63.623047"/>
     <use xlink:href="#DejaVuSans-33" x="127.246094"/>
     <use xlink:href="#DejaVuSans-31" x="190.869141"/>
    </g>
   </g>
   <g id="flower-genome-FAM21789-i1-1.1" style="cursor: pointer;">
    <g id="patch_75">
     <path d="M 194.50092 425.374424 &#xA;L 206.829333 339.628427 &#xA;L 189.973221 337.204884 &#xA;L 177.644808 422.950881 &#xA;z&#xA;" style="fill: #ffffff; opacity: 0; stroke: #000000; stroke-linejoin: miter"/>
    </g>
    <!-- FAM21789-i1-1.1 -->
    <g transform="translate(189.187711 420.563059)rotate(-81.818182)scale(0.093168 -0.093168)">
     <use xlink:href="#DejaVuSans-46"/>
     <use xlink:href="#DejaVuSans-41" x="48.394531"/>
     <use xlink:href="#DejaVuSans-4d" x="116.802734"/>
     <use xlink:href="#DejaVuSans-32" x="203.082031"/>
     <use xlink:href="#DejaVuSans-31" x="266.705078"/>
     <use xlink:href="#DejaVuSans-37" x="330.328125"/>
     <use xlink:href="#DejaVuSans-38" x="393.951172"/>
     <use xlink:href="#DejaVuSans-39" x="457.574219"/>
     <use xlink:href="#DejaVuSans-2d" x="521.197266"/>
     <use xlink:href="#DejaVuSans-69" x="557.28125"/>
     <use xlink:href="#DejaVuSans-31" x="585.064453"/>
     <use xlink:href="#DejaVuSans-2d" x="648.6875"/>
     <use xlink:href="#DejaVuSans-31" x="684.771484"/>
     <use xlink:href="#DejaVuSans-2e" x="748.394531"/>
     <use xlink:href="#DejaVuSans-31" x="780.181641"/>
    </g>
   </g>
   <g id="flower-unique-FAM24227-i1-1.1" style="cursor: pointer;">
    <g id="patch_76">
     <path d="M 221.116484 311.430961 &#xA;L 223.944019 331.096905 &#xA;L 240.800132 328.673362 &#xA;L 237.972596 309.007418 &#xA;z&#xA;" style="fill: #ffffff; opacity: 0; stroke: #000000; stroke-linejoin: miter"/>
    </g>
    <!-- 13 -->
    <g transform="translate(227.569988 314.550528)rotate(-278.181818)scale(0.093168 -0.093168)">
     <use xlink:href="#DejaVuSans-31"/>
     <use xlink:href="#DejaVuSans-33" x="63.623047"/>
    </g>
   </g>
   <g id="flower-shell-FAM24227-i1-1.1">
    <g id="patch_77">
     <path d="M 214.435475 264.963527 &#xA;L 218.950251 296.364484 &#xA;L 235.806363 293.940941 &#xA;L 231.291587 262.539984 &#xA;z&#xA;" style="fill: #ffffff; opacity: 0; stroke: #000000; stroke-linejoin: miter"/>
    </g>
    <!-- 1186 -->
    <g transform="translate(220.88898 268.083094)rotate(-278.181818)scale(0.093168 -0.093168)">
     <use xlink:href="#DejaVuSans-31"/>
     <use xlink:href="#DejaVuSans-31" x="63.623047"/>
     <use xlink:href="#DejaVuSans-38" x="127.246094"/>
     <use xlink:href="#DejaVuSans-36" x="190.869141"/>
    </g>
   </g>
   <g id="flower-genome-FAM24227-i1-1.1" style="cursor: pointer;">
    <g id="patch_78">
     <path d="M 225.170667 339.628427 &#xA;L 237.49908 425.374424 &#xA;L 254.355192 422.950881 &#xA;L 242.026779 337.204884 &#xA;z&#xA;" style="fill: #ffffff; opacity: 0; stroke: #000000; stroke-linejoin: miter"/>
    </g>
    <!-- FAM24227-i1-1.1 -->
    <g transform="translate(231.624172 342.747994)rotate(-278.181818)scale(0.093168 -0.093168)">
     <use xlink:href="#DejaVuSans-46"/>
     <use xlink:href="#DejaVuSans-41" x="48.394531"/>
     <use xlink:href="#DejaVuSans-4d" x="116.802734"/>
     <use xlink:href="#DejaVuSans-32" x="203.082031"/>
     <use xlink:href="#DejaVuSans-34" x="266.705078"/>
     <use xlink:href="#DejaVuSans-32" x="330.328125"/>
     <use xlink:href="#DejaVuSans-32" x="393.951172"/>
     <use xlink:href="#DejaVuSans-37" x="457.574219"/>
     <use xlink:href="#DejaVuSans-2d" x="521.197266"/>
     <use xlink:href="#DejaVuSans-69" x="557.28125"/>
     <use xlink:href="#DejaVuSans-31" x="585.064453"/>
     <use xlink:href="#DejaVuSans-2d" x="648.6875"/>
     <use xlink:href="#DejaVuSans-31" x="684.771484"/>
     <use xlink:href="#DejaVuSans-2e" x="748.394531"/>
     <use xlink:href="#DejaVuSans-31" x="780.181641"/>
    </g>
   </g>
   <g id="flower-unique-FAM3257-i1-1.1" style="cursor: pointer;">
    <g id="patch_79">
     <path d="M 249.022313 308.820536 &#xA;L 254.813336 321.501107 &#xA;L 270.303866 314.426819 &#xA;L 264.512843 301.746248 &#xA;z&#xA;" style="fill: #ffffff; opacity: 0; stroke: #000000; stroke-linejoin: miter"/>
    </g>
    <!-- 1 -->
    <g transform="translate(256.093289 309.995576)rotate(-294.545455)scale(0.093168 -0.093168)">
     <use xlink:href="#DejaVuSans-31"/>
    </g>
   </g>
   <g id="flower-shell-FAM3257-i1-1.1">
    <g id="patch_80">
     <path d="M 228.289286 263.421539 &#xA;L 241.467854 292.278578 &#xA;L 256.958384 285.204289 &#xA;L 243.779816 256.347251 &#xA;z&#xA;" style="fill: #ffffff; opacity: 0; stroke: #000000; stroke-linejoin: miter"/>
    </g>
    <!-- 1789 -->
    <g transform="translate(235.360262 264.596579)rotate(-294.545455)scale(0.093168 -0.093168)">
     <use xlink:href="#DejaVuSans-31"/>
     <use xlink:href="#DejaVuSans-37" x="63.623047"/>
     <use xlink:href="#DejaVuSans-38" x="127.246094"/>
     <use xlink:href="#DejaVuSans-39" x="190.869141"/>
    </g>
   </g>
   <g id="flower-genome-FAM3257-i1-1.1" style="cursor: pointer;">
    <g id="patch_81">
     <path d="M 259.625161 332.037533 &#xA;L 293.14911 405.444743 &#xA;L 308.63964 398.370455 &#xA;L 275.115691 324.963245 &#xA;z&#xA;" style="fill: #ffffff; opacity: 0; stroke: #000000; stroke-linejoin: miter"/>
    </g>
    <!-- FAM3257-i1-1.1 -->
    <g transform="translate(266.696137 333.212574)rotate(-294.545455)scale(0.093168 -0.093168)">
     <use xlink:href="#DejaVuSans-46"/>
     <use xlink:href="#DejaVuSans-41" x="48.394531"/>
     <use xlink:href="#DejaVuSans-4d" x="116.802734"/>
     <use xlink:href="#DejaVuSans-33" x="203.082031"/>
     <use xlink:href="#DejaVuSans-32" x="266.705078"/>
     <use xlink:href="#DejaVuSans-35" x="330.328125"/>
     <use xlink:href="#DejaVuSans-37" x="393.951172"/>
     <use xlink:href="#DejaVuSans-2d" x="457.574219"/>
     <use xlink:href="#DejaVuSans-69" x="493.658203"/>
     <use xlink:href="#DejaVuSans-31" x="521.441406"/>
     <use xlink:href="#DejaVuSans-2d" x="585.064453"/>
     <use xlink:href="#DejaVuSans-31" x="621.148438"/>
     <use xlink:href="#DejaVuSans-2e" x="684.771484"/>
     <use xlink:href="#DejaVuSans-31" x="716.558594"/>
    </g>
   </g>
   <g id="flower-unique-FAM22472-i1-1.1" style="cursor: pointer;">
    <g id="patch_82">
     <path d="M 271.890105 293.51781 &#xA;L 284.900992 308.533174 &#xA;L 297.77099 297.381258 &#xA;L 284.760103 282.365894 &#xA;z&#xA;" style="fill: #ffffff; opacity: 0; stroke: #000000; stroke-linejoin: miter"/>
    </g>
    <!-- 11 -->
    <g transform="translate(279.005704 292.653129)rotate(-310.909091)scale(0.093168 -0.093168)">
     <use xlink:href="#DejaVuSans-31"/>
     <use xlink:href="#DejaVuSans-31" x="63.623047"/>
    </g>
   </g>
   <g id="flower-shell-FAM22472-i1-1.1">
    <g id="patch_83">
     <path d="M 243.088448 260.278926 &#xA;L 259.981247 279.774255 &#xA;L 272.851244 268.622338 &#xA;L 255.958446 249.127009 &#xA;z&#xA;" style="fill: #ffffff; opacity: 0; stroke: #000000; stroke-linejoin: miter"/>
    </g>
    <!-- 976 -->
    <g transform="translate(250.204047 259.414244)rotate(-310.909091)scale(0.093168 -0.093168)">
     <use xlink:href="#DejaVuSans-39"/>
     <use xlink:href="#DejaVuSans-37" x="63.623047"/>
     <use xlink:href="#DejaVuSans-36" x="127.246094"/>
    </g>
   </g>
   <g id="flower-genome-FAM22472-i1-1.1" style="cursor: pointer;">
    <g id="patch_84">
     <path d="M 290.545403 315.047171 &#xA;L 347.27451 380.51605 &#xA;L 360.144507 369.364134 &#xA;L 303.415401 303.895255 &#xA;z&#xA;" style="fill: #ffffff; opacity: 0; stroke: #000000; stroke-linejoin: miter"/>
    </g>
    <!-- FAM22472-i1-1.1 -->
    <g transform="translate(297.661002 314.18249)rotate(-310.909091)scale(0.093168 -0.093168)">
     <use xlink:href="#DejaVuSans-46"/>
     <use xlink:href="#DejaVuSans-41" x="48.394531"/>
     <use xlink:href="#DejaVuSans-4d" x="116.802734"/>
     <use xlink:href="#DejaVuSans-32" x="203.082031"/>
     <use xlink:href="#DejaVuSans-32" x="266.705078"/>
     <use xlink:href="#DejaVuSans-34" x="330.328125"/>
     <use xlink:href="#DejaVuSans-37" x="393.951172"/>
     <use xlink:href="#DejaVuSans-32" x="457.574219"/>
     <use xlink:href="#DejaVuSans-2d" x="521.197266"/>
     <use xlink:href="#DejaVuSans-69" x="557.28125"/>
     <use xlink:href="#DejaVuSans-31" x="585.064453"/>
     <use xlink:href="#DejaVuSans-2d" x="648.6875"/>
     <use xlink:href="#DejaVuSans-31" x="684.771484"/>
     <use xlink:href="#DejaVuSans-2e" x="748.394531"/>
     <use xlink:href="#DejaVuSans-31" x="780.181641"/>
    </g>
   </g>
   <g id="flower-unique-FAM23217-i1-1.1" style="cursor: pointer;">
    <g id="patch_85">
     <path d="M 291.461271 274.632333 &#xA;L 308.175443 285.373879 &#xA;L 317.382257 271.047796 &#xA;L 300.668086 260.30625 &#xA;z&#xA;" style="fill: #ffffff; opacity: 0; stroke: #000000; stroke-linejoin: miter"/>
    </g>
    <!-- 17 -->
    <g transform="translate(298.04503 271.797982)rotate(-327.272727)scale(0.093168 -0.093168)">
     <use xlink:href="#DejaVuSans-31"/>
     <use xlink:href="#DejaVuSans-37" x="63.623047"/>
    </g>
   </g>
   <g id="flower-shell-FAM23217-i1-1.1">
    <g id="patch_86">
     <path d="M 251.968398 249.251805 &#xA;L 278.656208 266.403018 &#xA;L 287.863022 252.076936 &#xA;L 261.175212 234.925722 &#xA;z&#xA;" style="fill: #ffffff; opacity: 0; stroke: #000000; stroke-linejoin: miter"/>
    </g>
    <!-- 1260 -->
    <g transform="translate(258.552156 246.417453)rotate(-327.272727)scale(0.093168 -0.093168)">
     <use xlink:href="#DejaVuSans-31"/>
     <use xlink:href="#DejaVuSans-32" x="63.623047"/>
     <use xlink:href="#DejaVuSans-36" x="127.246094"/>
     <use xlink:href="#DejaVuSans-30" x="190.869141"/>
    </g>
   </g>
   <g id="flower-genome-FAM23217-i1-1.1" style="cursor: pointer;">
    <g id="patch_87">
     <path d="M 315.42642 290.033799 &#xA;L 388.302314 336.868293 &#xA;L 397.509129 322.54221 &#xA;L 324.633235 275.707717 &#xA;z&#xA;" style="fill: #ffffff; opacity: 0; stroke: #000000; stroke-linejoin: miter"/>
    </g>
    <!-- FAM23217-i1-1.1 -->
    <g transform="translate(322.010178 287.199448)rotate(-327.272727)scale(0.093168 -0.093168)">
     <use xlink:href="#DejaVuSans-46"/>
     <use xlink:href="#DejaVuSans-41" x="48.394531"/>
     <use xlink:href="#DejaVuSans-4d" x="116.802734"/>
     <use xlink:href="#DejaVuSans-32" x="203.082031"/>
     <use xlink:href="#DejaVuSans-33" x="266.705078"/>
     <use xlink:href="#DejaVuSans-32" x="330.328125"/>
     <use xlink:href="#DejaVuSans-31" x="393.951172"/>
     <use xlink:href="#DejaVuSans-37" x="457.574219"/>
     <use xlink:href="#DejaVuSans-2d" x="521.197266"/>
     <use xlink:href="#DejaVuSans-69" x="557.28125"/>
     <use xlink:href="#DejaVuSans-31" x="585.064453"/>
     <use xlink:href="#DejaVuSans-2d" x="648.6875"/>
     <use xlink:href="#DejaVuSans-31" x="684.771484"/>
     <use xlink:href="#DejaVuSans-2e" x="748.394531"/>
     <use xlink:href="#DejaVuSans-31" x="780.181641"/>
    </g>
   </g>
   <g id="flower-unique-FAM17891-i1-1.1" style="cursor: pointer;">
    <g id="patch_88">
     <path d="M 307.762876 251.83305 &#xA;L 321.138525 255.760495 &#xA;L 325.936275 239.420859 &#xA;L 312.560626 235.493414 &#xA;z&#xA;" style="fill: #ffffff; opacity: 0; stroke: #000000; stroke-linejoin: miter"/>
    </g>
    <!-- 0 -->
    <g transform="translate(313.281416 247.25865)rotate(-343.636364)scale(0.093168 -0.093168)">
     <use xlink:href="#DejaVuSans-30"/>
    </g>
   </g>
   <g id="flower-shell-FAM17891-i1-1.1">
    <g id="patch_89">
     <path d="M 259.875358 237.772006 &#xA;L 290.314179 246.70965 &#xA;L 295.111929 230.370015 &#xA;L 264.673108 221.432371 &#xA;z&#xA;" style="fill: #ffffff; opacity: 0; stroke: #000000; stroke-linejoin: miter"/>
    </g>
    <!-- 1534 -->
    <g transform="translate(265.393899 233.197606)rotate(-343.636364)scale(0.093168 -0.093168)">
     <use xlink:href="#DejaVuSans-31"/>
     <use xlink:href="#DejaVuSans-35" x="63.623047"/>
     <use xlink:href="#DejaVuSans-33" x="127.246094"/>
     <use xlink:href="#DejaVuSans-34" x="190.869141"/>
    </g>
   </g>
   <g id="flower-genome-FAM17891-i1-1.1" style="cursor: pointer;">
    <g id="patch_90">
     <path d="M 332.2525 259.023852 &#xA;L 415.37121 283.429707 &#xA;L 420.16896 267.090072 &#xA;L 337.05025 242.684217 &#xA;z&#xA;" style="fill: #ffffff; opacity: 0; stroke: #000000; stroke-linejoin: miter"/>
    </g>
    <!-- FAM17891-i1-1.1 -->
    <g transform="translate(337.771041 254.449453)rotate(-343.636364)scale(0.093168 -0.093168)">
     <use xlink:href="#DejaVuSans-46"/>
     <use xlink:href="#DejaVuSans-41" x="48.394531"/>
     <use xlink:href="#DejaVuSans-4d" x="116.802734"/>
     <use xlink:href="#DejaVuSans-31" x="203.082031"/>
     <use xlink:href="#DejaVuSans-37" x="266.705078"/>
     <use xlink:href="#DejaVuSans-38" x="330.328125"/>
     <use xlink:href="#DejaVuSans-39" x="393.951172"/>
     <use xlink:href="#DejaVuSans-31" x="457.574219"/>
     <use xlink:href="#DejaVuSans-2d" x="521.197266"/>
     <use xlink:href="#DejaVuSans-69" x="557.28125"/>
     <use xlink:href="#DejaVuSans-31" x="585.064453"/>
     <use xlink:href="#DejaVuSans-2d" x="648.6875"/>
     <use xlink:href="#DejaVuSans-31" x="684.771484"/>
     <use xlink:href="#DejaVuSans-2e" x="748.394531"/>
     <use xlink:href="#DejaVuSans-31" x="780.181641"/>
    </g>
   </g>
   <g id="flower-core-text" style="pointer-events: none;">
    <!-- 310 -->
    <g transform="translate(204.5475 219.326097)scale(0.12 -0.12)">
     <use xlink:href="#DejaVuSans-33"/>
     <use xlink:href="#DejaVuSans-31" x="63.623047"/>
     <use xlink:href="#DejaVuSans-30" x="127.246094"/>
    </g>
   </g>
  </g>
 </g>
 <defs>
  <clipPath id="paec70650e7">
   <rect x="49.366708" y="49.381555" width="333.266585" height="333.266585"/>
  </clipPath>
 </defs>
</svg>